<svg version="1.2" xmlns="http://www.w3.org/2000/svg" viewBox="0 0 800 400" width="800" height="400">
	<title>2110</title>
	<defs>
		<linearGradient id="g1" x1="-45.8" y1="311.9" x2="-45.8" y2="120.6" gradientUnits="userSpaceOnUse">
			<stop offset="0" stop-color="#e5fffa"/>
			<stop offset="1" stop-color="#e8f3ff"/>
		</linearGradient>
		<linearGradient id="g2" x1="671.6" y1="306.9" x2="671.6" y2="140.7" gradientUnits="userSpaceOnUse">
			<stop offset="0" stop-color="#e5fffa"/>
			<stop offset="1" stop-color="#e8f3ff"/>
		</linearGradient>
		<linearGradient id="g3" x1="325.4" y1="312.9" x2="325.4" y2="96.4" gradientUnits="userSpaceOnUse">
			<stop offset="0" stop-color="#e5fffa"/>
			<stop offset="1" stop-color="#e8f3ff"/>
		</linearGradient>
	</defs>
	<style>
		.s0 { fill: url(#g1) } 
		.s1 { fill: url(#g2) } 
		.s2 { fill: url(#g3) } 
	</style>
	<g id="cloud_01">
		<g id="&lt;Clip Group&gt;">
			<g id="&lt;Group&gt;">
				<path id="&lt;Path&gt;" class="s0" d="m-57.4 310.4c0 0-22.4-34.8-17.5-53 5-18.2 21.5-14.2 21.5-14.2 0 0-12.6-52.5 5.1-74.6 17.8-22 37.1 3.2 37.1 3.2 0 0 2.4-7.5 5.6-10.7 3.2-3.2 10 0 10 0 0 0 0.1-31.6 16.5-39.4 20.8-9.8 39.7 46.9 39.7 46.9 0 0 39.5-21.9 72.5-7.5 33.1 14.5 0 150.8 0 150.8z"/>
				<path id="&lt;Path&gt;" class="s1" d="m876.2 275.1c0 0-20-36.2-85.3-15.4 0 0 9.7-10.7 4.6-15.8-5.1-5.1-13.4-1.5-13.4-1.5 0 0 25.3-41.9 16.7-73-8.3-30.1-77.5-20.5-105.7 7.7 0 0-16.5-33.4-45.1-36.3-28.5-2.9-27.8 55.6-27.8 55.6 0 0-8.3-8.3-14.7-6.2-6.4 2-6.8 16.6-6.8 16.6 0 0-19.6 1.9-36.2 18.5-16.6 16.6-7.7 81.6-7.7 81.6l321.4-9.6z"/>
				<path id="&lt;Path&gt;" class="s2" d="m156.1 311.4c0 0 0.2-46.5 17.3-54.3 17-7.7 25.6 15.1 25.6 15.1 0 0-2.8-8.8-1.1-12.5 1.7-3.7 7.1 0 7.1 0 0 0-15.6-72 5.4-85.8 20.9-13.7 44.1 6.6 44.1 6.6 0 0 0.1-7.2 4.9-8.2 4.8-1.1 8.1 3.7 8.1 3.7 0 0-10-17.2-5.3-27.8 4.7-10.5 18.2-7.3 18.2-7.3 0 0 14.7-44.5 45.4-44.5 30.6 0 34.4 51.4 34.4 51.4 0 0 5.6-8.7 14.7-6.9 9.1 1.7 6.6 17.7 6.6 17.7 0 0 15.9-26.6 40.4-25.1 28.4 1.8 19.5 64 19.5 64 0 0 43.6-9.5 66.7 2 23.1 11.5 19.1 58.6 19.1 58.6 0 0 5.9-8.6 18.6-8.6 12.8 0 11.2 30 11.2 30 0 0 37.6-1.4 43.2 26.2 0 0-244.9 6.7-305.9 7.1-61.1 0.5-138.2-1.4-138.2-1.4z"/>
			</g>
		</g>
	</g>
</svg>