<svg version="1.2" xmlns="http://www.w3.org/2000/svg" viewBox="0 0 800 400" width="800" height="400">
	<title>2110</title>
	<defs>
		<linearGradient id="g1" x1="85.3" y1="355.5" x2="85.3" y2="301.5" gradientUnits="userSpaceOnUse">
			<stop offset="0" stop-color="#80ac00"/>
			<stop offset="1" stop-color="#d7c500"/>
		</linearGradient>
		<linearGradient id="g2" x1="252" y1="356.4" x2="252" y2="296.9" gradientUnits="userSpaceOnUse">
			<stop offset="0" stop-color="#80ac00"/>
			<stop offset="1" stop-color="#d7c500"/>
		</linearGradient>
		<linearGradient id="g3" x1="531.5" y1="359.7" x2="531.5" y2="314.4" gradientUnits="userSpaceOnUse">
			<stop offset="0" stop-color="#80ac00"/>
			<stop offset="1" stop-color="#d7c500"/>
		</linearGradient>
		<linearGradient id="g4" x1="723.3" y1="361.3" x2="723.3" y2="318" gradientUnits="userSpaceOnUse">
			<stop offset="0" stop-color="#80ac00"/>
			<stop offset="1" stop-color="#d7c500"/>
		</linearGradient>
		<linearGradient id="g5" x1="729.1" y1="361.6" x2="729.1" y2="322" gradientUnits="userSpaceOnUse">
			<stop offset="0" stop-color="#80ac00"/>
			<stop offset="1" stop-color="#d7c500"/>
		</linearGradient>
		<linearGradient id="g6" x1="83.4" y1="320.2" x2="83.4" y2="319.7" gradientUnits="userSpaceOnUse">
			<stop offset="0" stop-color="#c96566"/>
			<stop offset="1" stop-color="#fdd3db"/>
		</linearGradient>
		<linearGradient id="g7" x1="86.2" y1="355.5" x2="86.2" y2="305.4" gradientUnits="userSpaceOnUse">
			<stop offset="0" stop-color="#c96566"/>
			<stop offset="1" stop-color="#fdd3db"/>
		</linearGradient>
		<linearGradient id="g8" x1="247.1" y1="312.4" x2="247.1" y2="312.3" gradientUnits="userSpaceOnUse">
			<stop offset="0" stop-color="#c96566"/>
			<stop offset="1" stop-color="#fdd3db"/>
		</linearGradient>
		<linearGradient id="g9" x1="240.7" y1="356.2" x2="240.7" y2="303.9" gradientUnits="userSpaceOnUse">
			<stop offset="0" stop-color="#c96566"/>
			<stop offset="1" stop-color="#fdd3db"/>
		</linearGradient>
		<linearGradient id="g10" x1="534.7" y1="359.7" x2="534.7" y2="331.6" gradientUnits="userSpaceOnUse">
			<stop offset="0" stop-color="#c96566"/>
			<stop offset="1" stop-color="#fdd3db"/>
		</linearGradient>
		<linearGradient id="g11" x1="880.5" y1="359.7" x2="880.5" y2="314.4" gradientUnits="userSpaceOnUse">
			<stop offset="0" stop-color="#80ac00"/>
			<stop offset="1" stop-color="#d7c500"/>
		</linearGradient>
		<linearGradient id="g12" x1="883.7" y1="359.7" x2="883.7" y2="331.6" gradientUnits="userSpaceOnUse">
			<stop offset="0" stop-color="#c96566"/>
			<stop offset="1" stop-color="#fdd3db"/>
		</linearGradient>
		<linearGradient id="g13" x1="731.6" y1="361.3" x2="731.6" y2="329" gradientUnits="userSpaceOnUse">
			<stop offset="0" stop-color="#c96566"/>
			<stop offset="1" stop-color="#fdd3db"/>
		</linearGradient>
	</defs>
	<style>
		.s0 { fill: url(#g1) } 
		.s1 { fill: url(#g2) } 
		.s2 { fill: url(#g3) } 
		.s3 { fill: url(#g4) } 
		.s4 { fill: url(#g5) } 
		.s5 { opacity: .5;mix-blend-mode: multiply;fill: url(#g6) } 
		.s6 { opacity: .3;mix-blend-mode: multiply;fill: url(#g7) } 
		.s7 { opacity: .3;mix-blend-mode: multiply;fill: url(#g8) } 
		.s8 { opacity: .3;mix-blend-mode: multiply;fill: url(#g9) } 
		.s9 { opacity: .3;mix-blend-mode: multiply;fill: url(#g10) } 
		.s10 { fill: url(#g11) } 
		.s11 { opacity: .3;mix-blend-mode: multiply;fill: url(#g12) } 
		.s12 { opacity: .3;mix-blend-mode: multiply;fill: url(#g13) } 
	</style>
	<g id="bush_01">
		<g id="&lt;Clip Group&gt;">
			<g id="&lt;Group&gt;">
				<path id="&lt;Path&gt;" class="s0" d="m206.3 355.5l-228.8-2.6-0.5-33.7c0 0 4.8-7.1 13.6-12 4.1-2.3 9-4.1 14.8-4.5 0 0-6.9 1.6-10.8 6.1 0.3-0.2 12-7.7 27.1-7.3 3.8 0.1 6.8 1.6 9.3 3.9l0.1 0.1c4.1 3.8 6.6 9.6 8 14.1q0.1 0.2 0.2 0.5 0.2 0.9 0.4 1.7 0.2 0.7 0.4 1.4 0.3 1.2 0.4 2 0.1 0.4 0.2 0.9 0 0.1 0 0.1c0 0 0.9-5.6 0-13.5 0 0 1.5 6.3 1.7 10.1 0 0 2-15.1 8.8-16.7 5.2-1.3 16.9 5.4 24.8 13.4q0 0 0 0.1 0.1 0 0.1 0.1 0 0 0.1 0c2.3 2.4 4.3 5 5.6 7.4q0-0.1 0-0.1-0.2-0.4-0.5-0.8c-1.4-2.7-5.5-10-10.3-15.3 0 0 5.4 2.9 12.3 8.8q0 0 0 0 0.3 0.3 0.6 0.5 1.4 1.2 2.7 2.6 0.1 0 0.2 0.1c6.4 6.2 13.3 14.9 17.8 26.2 0 0 1.4-3.5 4.8-7 1.9-2 4.4-4 7.6-5.4-0.4 0.3-3.3 2.2-4.1 6.3 0 0 17.1-16.6 35-14.8 6.5 0.6 10 4.1 11.8 8.4 3.1 7.2 1.2 16.3 1.2 16.3 0 0 5.2-11.6 6.4-24.3 0.3-3.1 0.4-6.3 0.1-9.4 0 0 2.1 4.9 2.8 9.3 0.1-6.5 1.1-18.2 6.1-21 4.2-2.3 11.4 6.5 17.1 17.5 3.9 7.4 7.1 15.7 8.4 22.4 0 0 1.3-6.9-0.9-14 0 0 5.4 12.5 5.4 22.1z"/>
				<path id="&lt;Path&gt;" class="s1" d="m316.8 356.4l-22.4-0.2-67.9-0.5c0 0 3.1-22.7 14.3-36.5-0.4 0.6-5.9 10.2-7.2 23.1 0 0 4.4-16.8 13.5-29.9v-0.1c5.3-7.7 12.3-14.2 21-15.3 11.3-1.5 17.9 12 21.7 26.4 3.6 13.7 4.6 28.3 4.8 31.4q0 0.5 0 0.5c0 0 2.5-14.2 0.2-22.5 0 0 5.4 12.9 5.5 20.1 0 0 4.7-16.1 10-16.6 5.3-0.4 6.5 20.1 6.5 20.1z"/>
				<path id="&lt;Path&gt;" class="s2" d="m636.2 359.7l-199.1-1.2c0 0 5.7-8.8 14-18 8.9-9.9 20.9-20.4 32.4-21.6 9.4-0.9 18 5.5 24.7 13.2 8.9 10.2 14.6 22.5 14.9 23.2-0.1-0.6-2.1-11.1-4.9-16.3 0.4 0.7 6.7 11.2 8 16.7 0 0-0.8-7.9-0.7-16.8 0.2-9.7 1.4-20.6 6.2-23.6 9.2-5.7 23.7 15.8 23.7 15.8 0 0-3.1-9.9-12.6-16.7 1.1 0.7 10.3 7 21.5 18.4 6.4 6.5 13.5 14.8 20 24.7 0 0 1.3-5.5 5-10.9 2.2-3.3 5.4-6.6 9.6-8.7-0.9 0.6-6.2 4.1-7.2 9.5 0 0 9.8-14.3 21.9-12.6 8.3 1.2 13.9 11.8 16.6 18.2 1.2 2.9 1.8 5 1.8 5 0 0-0.2-2.4-0.7-5.6-0.7-4.7-2-11.1-4-14.8 0 0 4.4 5 7 12.4 1 2.9 1.8 6.2 1.9 9.7z"/>
				<path id="&lt;Path&gt;" class="s3" d="m767 361.3l-47.5-0.6c0 0-4.3-10-1.9-22.9 0 0-0.4 8 1.9 13.4 0 0 0.7-10.5 3.4-19.7 1.7-5.9 4.2-11.2 7.8-13 4.7-2.4 10 3.9 14 10.5 3.8 6.1 6.4 12.5 6.4 12.5 0 0 0.4-5.4-2.1-9.6 0.3 0.4 12.3 12.1 18 29.4z"/>
				<path id="&lt;Path&gt;" class="s4" d="m770.6 361.3c0 0-2.8-14.3 1.6-24.3 0 0-1 8.8 0 14.2 0 0 1.5-26.2 8.3-29 6.9-2.9 5.1 39.4 5.1 39.4z"/>
				<path id="&lt;Path&gt;" class="s5" d="m83.9 320.2q-0.3-0.2-0.6-0.5 0.3 0.3 0.6 0.5z"/>
				<path id="&lt;Path&gt;" class="s6" d="m206.3 355.5l-228.8-2.6-0.5-33.7c0 0 4.8-7.1 13.6-12 0 0-7.9 15.9-4.6 26.9 3.3 11 39.4 8.2 47.2-2.2 7.7-10.1-1.8-25.8-2.2-26.5l0.1 0.1c0.6 0.6 5.1 5.5 8 14.1q0.1 0.2 0.2 0.5 0.2 0.9 0.4 1.7 0.2 0.7 0.4 1.4 0.3 1.2 0.4 2 0.1 0.4 0.2 0.9 0 0.1 0 0.1c0 0 2.8 22.1 16.2 25 13.4 2.8 24.8-15.5 19.1-31.7q0 0 0 0.1 0.1 0 0.1 0.1 0 0 0.1 0c0.7 0.7 3.5 3.5 5.1 6.5q0.3 0.5 0.5 0.8 0 0 0 0.1 0.1 0.1 0.1 0.1c1.7 3.8 4.8 12.9 5.6 14.4 0.8 1.4 7.6 3.2 10.1 0.7 2.1-2.2-4.7-13.1-10.8-19.4 6.4 6.2 13.3 14.9 17.8 26.2 0 0 1.4-3.5 4.8-7 0 1.4 1.7 3.8 12.8 5.3 16.7 2.2 37.5-10.8 37.5-10.8 3.1 7.2 1.2 16.3 1.2 16.3 0 0 5.2-11.6 6.4-24.3 0.2 0.4 4.7 14.6 14.7 19.5 10.3 4.9 15.5-11.4 11.4-23.1 3.9 7.4 7.1 15.7 8.4 22.4 0 0 1.3-6.9-0.9-14 0 0 5.4 12.5 5.4 22.1z"/>
				<path id="&lt;Path&gt;" class="s7" d="m247.1 312.3q0 0 0 0.1v-0.1z"/>
				<path id="&lt;Path&gt;" class="s8" d="m294.6 354.8q-0.1 0.7-0.2 1.4l-67.9-0.5c0 0 3.1-22.7 14.3-36.5-0.4 0.6-5.9 10.2-7.2 23.1 0 0 4.4-16.8 13.5-29.9-0.3 0.5-11.7 19.7-7.4 30.6 4.4 11 43.9 4.2 48.3-7.2 1.4-3.5 1.8-8 1.8-12.4-0.2-9.1-2.4-18.1-2.7-19.5 0.7 2.6 9.3 33.5 7.5 50.9z"/>
				<path id="&lt;Path&gt;" class="s9" d="m636.2 359.7l-199.1-1.2c0 0 5.7-8.8 14-18 2.4 3.5 9.5 11 27.9 12.4 24.4 2 27.8-21.3 27.8-21.3l1.4 0.5c8.9 10.2 14.6 22.5 14.9 23.2-0.1-0.6-2.1-11.1-4.9-16.3 0.4 0.7 6.7 11.2 8 16.7 0 0-0.8-7.9-0.7-16.8 0 0 2.5 8.4 19.4 12 17 3.7 18.6-17.8 18.6-17.8l0.8-0.3c6.4 6.5 13.5 14.8 20 24.7 0 0 1.3-5.5 5-10.9 2.4 4 6.8 7.4 14.5 8.7 13.4 2.4 21.6 0.4 26.4-2.3q0.6-0.3 1.1-0.6c1.3-0.8 2.3-1.7 3-2.4 1 2.9 1.8 6.2 1.9 9.7z"/>
				<path id="&lt;Path&gt;" class="s10" d="m985.2 359.7l-199.1-1.2c0 0 5.6-8.8 14-18 8.9-9.9 20.8-20.4 32.3-21.6 9.5-0.9 18.1 5.5 24.8 13.2 8.8 10.2 14.5 22.5 14.9 23.2-0.2-0.6-2.2-11.1-4.9-16.3 0.4 0.7 6.7 11.2 8 16.7 0 0-0.8-7.9-0.7-16.8 0.1-9.7 1.4-20.6 6.2-23.6 9.1-5.7 23.6 15.8 23.6 15.8 0 0-3.1-9.9-12.5-16.7 1 0.7 10.3 7 21.4 18.4 6.5 6.5 13.6 14.8 20.1 24.7 0 0 1.2-5.5 5-10.9 2.2-3.3 5.3-6.6 9.6-8.7-1 0.6-6.2 4.1-7.3 9.5 0 0 9.9-14.3 21.9-12.6 8.3 1.2 13.9 11.8 16.6 18.2 1.2 2.9 1.9 5 1.9 5 0 0-0.3-2.4-0.8-5.6-0.7-4.7-2-11.1-3.9-14.8 0 0 4.3 5 7 12.4 1 2.9 1.8 6.2 1.9 9.7z"/>
				<path id="&lt;Path&gt;" class="s11" d="m985.2 359.7l-199.1-1.2c0 0 5.6-8.8 14-18 2.3 3.5 9.4 11 27.9 12.4 24.4 2 27.8-21.3 27.8-21.3l1.4 0.5c8.8 10.2 14.5 22.5 14.9 23.2-0.2-0.6-2.2-11.1-4.9-16.3 0.4 0.7 6.7 11.2 8 16.7 0 0-0.8-7.9-0.7-16.8 0 0 2.4 8.4 19.4 12 17 3.7 18.5-17.8 18.5-17.8l0.8-0.3c6.5 6.5 13.6 14.8 20.1 24.7 0 0 1.2-5.5 5-10.9 2.4 4 6.8 7.4 14.4 8.7 13.4 2.4 21.6 0.4 26.4-2.3q0.6-0.3 1.1-0.6c1.3-0.8 2.3-1.7 3.1-2.4 1 2.9 1.8 6.2 1.9 9.7z"/>
				<path id="&lt;Path&gt;" class="s12" d="m767 361.3l-47.5-0.6c0 0-4.3-10-1.9-22.9 0 0-0.4 8 1.9 13.4 0 0 0.7-10.5 3.4-19.7 0 0 0.5 22.6 17.7 24.2 11.2 1.1 7.9-15.2 4.1-26.7 3.8 6.1 6.4 12.5 6.4 12.5 0 0 0.4-5.4-2.1-9.6 0.3 0.4 12.3 12.1 18 29.4z"/>
			</g>
		</g>
	</g>
</svg>