<svg version="1.2" xmlns="http://www.w3.org/2000/svg" viewBox="0 0 800 400" width="800" height="400">
	<title>2110</title>
	<defs>
		<linearGradient id="g1" x1="25.1" y1="255.7" x2="25.1" y2="176.3" gradientUnits="userSpaceOnUse">
			<stop offset="0" stop-color="#4a3400"/>
			<stop offset="1" stop-color="#836b02"/>
		</linearGradient>
		<linearGradient id="g2" x1="36.1" y1="132.5" x2="190.5" y2="54.3" gradientUnits="userSpaceOnUse">
			<stop offset="0" stop-color="#4a3400"/>
			<stop offset="1" stop-color="#836b02"/>
		</linearGradient>
		<linearGradient id="g3" x1="-105.6" y1="352" x2="-105.6" y2="145" gradientUnits="userSpaceOnUse">
			<stop offset=".022" stop-color="#b6591b"/>
			<stop offset=".954" stop-color="#8d3936"/>
		</linearGradient>
		<linearGradient id="g4" x1="71.4" y1="209.8" x2="124.8" y2="209.8" gradientUnits="userSpaceOnUse">
			<stop offset=".046" stop-color="#8d3936"/>
			<stop offset=".978" stop-color="#9d4f1b"/>
		</linearGradient>
		<linearGradient id="g5" x1="29.3" y1="253.3" x2="29.3" y2="176.3" gradientUnits="userSpaceOnUse">
			<stop offset="0" stop-color="#949b1d"/>
			<stop offset="1" stop-color="#aea800"/>
		</linearGradient>
		<linearGradient id="g6" x1="43.4" y1="253.7" x2="43.4" y2="248.5" gradientUnits="userSpaceOnUse">
			<stop offset="0" stop-color="#b6b41c"/>
			<stop offset="1" stop-color="#cfd703"/>
		</linearGradient>
		<linearGradient id="g7" x1="-0.4" y1="238.8" x2="-0.4" y2="224.9" gradientUnits="userSpaceOnUse">
			<stop offset="0" stop-color="#b6b41c"/>
			<stop offset="1" stop-color="#cfd703"/>
		</linearGradient>
		<linearGradient id="g8" x1="43.3" y1="134.7" x2="192.9" y2="59" gradientUnits="userSpaceOnUse">
			<stop offset="0" stop-color="#949b1d"/>
			<stop offset="1" stop-color="#aea800"/>
		</linearGradient>
		<linearGradient id="g9" x1="50.6" y1="151.1" x2="60.7" y2="146.1" gradientUnits="userSpaceOnUse">
			<stop offset="0" stop-color="#b6b41c"/>
			<stop offset="1" stop-color="#cfd703"/>
		</linearGradient>
		<linearGradient id="g10" x1="54.4" y1="86.9" x2="81.5" y2="73.1" gradientUnits="userSpaceOnUse">
			<stop offset="0" stop-color="#b6b41c"/>
			<stop offset="1" stop-color="#cfd703"/>
		</linearGradient>
		<linearGradient id="g11" x1="490" y1="128.7" x2="490" y2="0" gradientUnits="userSpaceOnUse">
			<stop offset="0" stop-color="#836b02"/>
			<stop offset="1" stop-color="#4a3400"/>
		</linearGradient>
		<linearGradient id="g12" x1="112.9" y1="354" x2="112.9" y2="9.7" gradientUnits="userSpaceOnUse">
			<stop offset=".022" stop-color="#b6591b"/>
			<stop offset=".954" stop-color="#8d3936"/>
		</linearGradient>
		<linearGradient id="g13" x1="492.3" y1="128.9" x2="492.3" y2="0" gradientUnits="userSpaceOnUse">
			<stop offset="0" stop-color="#949b1d"/>
			<stop offset="1" stop-color="#aea800"/>
		</linearGradient>
		<linearGradient id="g14" x1="325.1" y1="62.5" x2="325.1" y2="25.9" gradientUnits="userSpaceOnUse">
			<stop offset="0" stop-color="#b6b41c"/>
			<stop offset="1" stop-color="#cfd703"/>
		</linearGradient>
		<linearGradient id="g15" x1="360.3" y1="113.4" x2="360.3" y2="106.9" gradientUnits="userSpaceOnUse">
			<stop offset="0" stop-color="#b6b41c"/>
			<stop offset="1" stop-color="#cfd703"/>
		</linearGradient>
		<linearGradient id="g16" x1="716.4" y1="39.2" x2="716.4" y2="19.4" gradientUnits="userSpaceOnUse">
			<stop offset="0" stop-color="#b6b41c"/>
			<stop offset="1" stop-color="#cfd703"/>
		</linearGradient>
		<linearGradient id="g17" x1="683.9" y1="33" x2="683.9" y2="25.9" gradientUnits="userSpaceOnUse">
			<stop offset="0" stop-color="#b6b41c"/>
			<stop offset="1" stop-color="#cfd703"/>
		</linearGradient>
		<linearGradient id="g18" x1="662.8" y1="77.8" x2="662.8" y2="50.6" gradientUnits="userSpaceOnUse">
			<stop offset="0" stop-color="#b6b41c"/>
			<stop offset="1" stop-color="#cfd703"/>
		</linearGradient>
		<linearGradient id="g19" x1="619.1" y1="129.3" x2="619.1" y2="117.8" gradientUnits="userSpaceOnUse">
			<stop offset="0" stop-color="#b6b41c"/>
			<stop offset="1" stop-color="#cfd703"/>
		</linearGradient>
		<linearGradient id="g20" x1="559.6" y1="58.6" x2="559.6" y2="34.1" gradientUnits="userSpaceOnUse">
			<stop offset="0" stop-color="#b6b41c"/>
			<stop offset="1" stop-color="#cfd703"/>
		</linearGradient>
	</defs>
	<style>
		.s0 { fill: url(#g1) } 
		.s1 { fill: url(#g2) } 
		.s2 { fill: url(#g3) } 
		.s3 { fill: url(#g4) } 
		.s4 { opacity: .5;mix-blend-mode: multiply;fill: #795780 } 
		.s5 { fill: url(#g5) } 
		.s6 { opacity: .5;mix-blend-mode: multiply;fill: #a28ca6 } 
		.s7 { fill: #bcbe02 } 
		.s8 { fill: url(#g6) } 
		.s9 { fill: url(#g7) } 
		.s10 { fill: url(#g8) } 
		.s11 { fill: url(#g9) } 
		.s12 { fill: url(#g10) } 
		.s13 { fill: url(#g11) } 
		.s14 { fill: url(#g12) } 
		.s15 { fill: url(#g13) } 
		.s16 { fill: url(#g14) } 
		.s17 { fill: url(#g15) } 
		.s18 { fill: url(#g16) } 
		.s19 { fill: url(#g17) } 
		.s20 { fill: url(#g18) } 
		.s21 { fill: url(#g19) } 
		.s22 { fill: url(#g20) } 
	</style>
	<g id="tree_01">
		<g id="&lt;Clip Group&gt;">
			<g id="&lt;Group&gt;">
				<g id="&lt;Group&gt;">
					<path id="&lt;Path&gt;" class="s0" d="m104.7 187v31.3l-4 15.2v-3.1c-5.6 19.1-15.7 18.9-15.7 18.9l4.7 3.9-19.7 2.5 2-2.5q-1.6 0.1-3.2 0.1c-27 0.4-40.6-12.8-40.6-12.8-0.9-20 8.1-39.7 8.1-39.7l-2.4-0.6-5.7 1.9c14-18.8 45.6-22.7 45.6-22.7l-3.8-3.1c20.2 5 34.7 10.7 34.7 10.7z"/>
					<path id="&lt;Path&gt;" class="s1" d="m215.3 154.9l-60.9 30.9-31.6 10.4 5.9-3.1c-40.4 12.5-45.7 0.9-45.7 0.9l-4.9 9.1-16.2-19.8 6.1-0.2q-1.1-1.8-2.1-3.6c-16.2-30.2 1.7-58.6 1.7-58.6 38.2-20.6 81.7-29.8 81.7-29.8l-0.1-3.4-7.1-4.5c44.6-2.6 70.4 29.2 70.4 29.2l3.8-7.2c1.8 27.8-1 49.7-1 49.7z"/>
					<path id="&lt;Path&gt;" class="s2" d="m187.5 145c0 0-17.7 4.8-22.4 12l-8.5 2.6c0 0-14.9 6-20.6 13.2-5.7 7.2-12.9 21.4-12.9 21.4 0 0 4.3 9.3 10.8 18.6q1.5 2.3 3.2 4.5c2.3 3 4.9 5.9 7.6 8.3l-0.4 10.7c-0.1 0.2-2.4 4.3-5.1 10.2l-0.1 0.1-0.3 0.7q-0.4 0.8-0.7 1.6c-1.6 3.5-3.2 7.5-4.6 11.6h-0.1c-1 3-1.9 6.1-2.6 9.1q-0.3 1.2-0.5 2.4c-0.6 3.1-0.7 7.9-0.5 13.7v0.1q0.1 1 0.1 2.1v0.3c0.4 6.5 1 14.1 1.8 21.6q0.3 2.2 0.5 4.2c0.6 5.1 1.2 10 1.8 14.6l0.3 2.5c0.4 3.2 0.8 6.1 1.2 8.7l0.1 0.4 0.1 1c1 6.6 1.6 10.8 1.6 10.8h-29.8l4.2-19.6 5.9-69.6 0.5-5.5 6.7-8.4 3.4-4.3 3.5-17.1c0 0-4.5-14.9-20-28.9 0 0-2.4-33.7-9.9-53.6h2.5c0 0 6.9 42.7 11.1 47.1 4.2 4.4 20-22.8 20-22.8l21.8-13.6-0.6-10.7h3.6c0 0-1.9 9.7-0.1 10.5 1.8 0.9 18.9-10.5 18.9-10.5z"/>
					<path id="&lt;Path&gt;" class="s3" d="m124.8 248.9c-1.3 6.5-6.9 13.5-7.2 13.9q0 0 0 0l-3.5-8.9c0 0-8-6.9-14.8-9.5-6.7-2.6-27.9-2.3-27.9-2.3l1.4-3.4 25.4 3.7c0 0 2.1-0.6 3.6-7 1.6-6.4-3.6-25.6-3.6-25.6l3.6 1.8c-0.7 11.8 2.1 24.3 2.1 24.3l-2.1 2.9c5.9 12.2 19.3 11.5 19.3 11.5z"/>
					<path id="&lt;Path&gt;" class="s4" d="m187.5 145c0 0-17.7 4.8-22.4 12l-8.5 2.6c0 0-14.9 6-20.6 13.2-5.7 7.2-12.9 21.4-12.9 21.4l-2.7-0.7-5 2.5 2.9 6.7 11.6 7.8 4 2.3 1.9 1.1 1.3 3.4-7.2-4.5 3.9 10.1 5.3 13.4h5.2l-5.1 10.2-0.1 0.1-0.3 0.7-0.7 1.6-4.2-3.8-1.9-12.3-1 8.2-4.6 9.1-0.8 7.7 2.4 3.5 5.4-0.8h0.1l-2.7 9.1-1 16.1v0.1l0.1 2.1v0.3l-5.1-17.5-2-5.6-3.3 15.6 2.6 15.1 5.9 16.8 1-1.9 2.7-0.9 0.5 4.2-1.6-1.4-1.8 2.7 0.3 7.5 4.9 5.8 0.3 2.5-5.5-6.9-3.5-13.5-2.4-7.5-2.4-7.4v19.5l5.9 12.4 9.1 12.1 0.1 0.4 0.1 1-7.6-7.6-10.5-15-2.2-7.9 0.9 15 8.5 22.6 12.5 3.7h-29.8l4.2-19.6 5.9-69.6q0 0 0 0l-3.5-8.9c0 0-8-6.9-14.8-9.5-6.7-2.6-27.9-2.3-27.9-2.3l1.4-3.4 25.4 3.7c0 0 2.1-0.6 3.6-7 1.6-6.4-3.6-25.6-3.6-25.6l3.6 1.8c-0.7 11.8 2.1 24.3 2.1 24.3l-2.1 2.9c5.9 12.2 19.3 11.5 19.3 11.5l3.7-1.4 3.4-4.3 3.5-17.1c0 0-4.5-14.9-20-28.9 0 0-2.4-33.7-9.9-53.6h2.5c0 0 6.9 42.7 11.1 47.1 4.2 4.4 20-22.8 20-22.8l21.8-13.6-0.6-10.7h3.6c0 0-1.9 9.7-0.1 10.5 1.8 0.9 18.9-10.5 18.9-10.5z"/>
					<path id="&lt;Path&gt;" class="s5" d="m104.3 219.8l-0.5-7.4c0 0-23.2 11.2-32 34.2l4.9-1.5-7.9 8.2c-27 0.4-40.6-12.8-40.6-12.8-0.9-19.5 7.7-38.8 8.1-39.7q0 0 0 0l-2.4-0.6-5.7 1.9c14-18.8 45.6-22.7 45.6-22.7l-3.8-3.1c20.2 5 34.7 10.7 34.7 10.7 0.1 0.9 3.7 23-0.4 32.8z"/>
					<path id="&lt;Path&gt;" class="s6" d="m104.3 219.8l-0.5-7.4c0 0-23.2 11.2-32 34.2l4.9-1.5-7.9 8.2c-27 0.4-40.6-12.8-40.6-12.8-0.9-19.5 7.7-38.8 8.1-39.7-0.1 0.7-3.5 17.5 0 27.5l0.3-2c0 0 8 13.7 19.8 16 11.9 2.3 44.7-35.6 47-41.1 2.4-5.5 1.3-14.2 1.3-14.2 0.1 0.9 3.7 23-0.4 32.8z"/>
					<path id="&lt;Path&gt;" class="s7" d="m72.1 183.9c0 0-20-1.1-29.8 3.1 0 0 25.9-2.8 29.8-3.1z"/>
					<path id="&lt;Path&gt;" class="s7" d="m72.1 206.1c0 0 2.3 8.7-8.5 12.4 0 0 8.8-9.6 8.5-12.4z"/>
					<path id="&lt;Path&gt;" class="s7" d="m95.8 187c0 0-1.8-4.8-8.6-8.5 0 0 8.6-0.7 8.6 8.5z"/>
					<path id="&lt;Path&gt;" class="s7" d="m42.3 194.7c0 0-7.6 0.4-14.1 7.4 0 0-1.3-12 14.1-7.4z"/>
					<path id="&lt;Path&gt;" class="s8" d="m52 248.5c0 0-3.8 4.3-15.4 3.1 0 0 11.9 6.2 15.4-3.1z"/>
					<path id="&lt;Path&gt;" class="s9" d="m28.1 224.9c0 0-3.7 11.3 2.2 13.9 0 0-1.4-7-2.2-13.9z"/>
					<path id="&lt;Path&gt;" class="s4" d="m113.6 309.8l2.7 15.9 8.5 22.6 3.3 3.7h-20.6l4.4-21.6z"/>
					<g id="&lt;Group&gt;">
						<path id="&lt;Path&gt;" class="s10" d="m151.3 186.8l14.2-7.8c0 0-35.1-15.3-84.8-2.6l5.7 3.9-20.5-0.8c-16.2-30.2 1.7-58.6 1.7-58.6 37.4-20.1 79.8-29.4 81.6-29.8q0.1 0 0.1 0l-0.1-3.4-7.1-4.5c44.6-2.6 70.4 29.2 70.4 29.2l3.8-7.2c1.8 27.8-1 49.7-1 49.7l-0.1 0.1c-1.6 1-42.3 26.8-63.9 31.8z"/>
						<path id="&lt;Path&gt;" class="s6" d="m151.3 186.8l14.2-7.8c0 0-35.1-15.3-84.8-2.6l5.7 3.9-20.5-0.8c-16.2-30.2 1.7-58.6 1.7-58.6 37.4-20.1 79.8-29.4 81.6-29.8-1.4 0.5-36 13.3-53.4 27.1l4-1.7c0 0-21.9 22.5-19.6 38.2 2.4 15.7 94.9 15.6 106.8 12.8 11.9-2.7 28.3-12.6 28.3-12.6l-0.1 0.1c-1.6 1-42.3 26.8-63.9 31.8z"/>
						<path id="&lt;Path&gt;" class="s7" d="m202.7 115c0 0-9.4-23.7-23.2-30.7 0 0 20.3 26.6 23.2 30.7z"/>
						<path id="&lt;Path&gt;" class="s7" d="m159.6 136.8c0 0-15.7 11.1-29.1 2.7 0 0 23.7 0.4 29.1-2.7z"/>
						<path id="&lt;Path&gt;" class="s7" d="m210.2 144.9c0 0 8.3-6.7 11.6-18.2 0 0 6.3 9.1-11.6 18.2z"/>
						<path id="&lt;Path&gt;" class="s7" d="m164.6 91.8c0 0-5.2-8.1-22.5-8.6 0 0 22.6-13.3 22.5 8.6z"/>
						<path id="&lt;Path&gt;" class="s11" d="m65.6 155.8c0 0-10.5-0.1-15-14.4 0 0-5.2 19.6 15 14.4z"/>
						<path id="&lt;Path&gt;" class="s12" d="m97.9 105.5c0 0-24.1 6.9-25.9 16.2 0 0 12.9-8.5 25.9-16.2z"/>
					</g>
				</g>
				<g id="&lt;Group&gt;">
					<path id="&lt;Path&gt;" class="s13" d="m382.1 124.3c0 0 25.4 9.9 55.3 0h-19.6c0 0 45.4-26.2 69-30.8l-4.4 8.8c0 0 36.4-1.9 74.3-13.4l13 4.6c0 0 18.4 25.7 43.7 28 0 0-8.5-5.9-13.9-9.6 0 0 20.7 0.6 70.7-17.8 50-18.4 77.6-94.1 77.6-94.1h-481.2c0 0 22.4 63.6 55.1 94.7l0.4-8.1c0 0 38.2 29.1 68.6 36z"/>
					<path id="&lt;Path&gt;" class="s14" d="m571.5 47.3c0 0-0.2 0.7-0.5 2-2.2 8.5-10.6 43-10.6 64.7l-5.8 5.9c0 0-5.5-2.4-15 10.2-5.4 7.2-4.6 24-3 37.2 1.3 9.9 3 17.8 3 17.8v16.6c0 0-2.8 5.7-2.6 21v0.2l0.1 2.4v0.3c0.2 6.3 1 14.2 2.5 23.7q2.2 13.3 4.1 23.5l0.9 4.9q0.1 0.3 0.1 0.5v0.1c3.2 16.8 5.3 25.5 5.3 25.5l-2.6 10.3c0 0-12.7 24.2-11.4 38.7l-26.9 0.7-19.6 0.5 11.1-41.4c0 0 18.2-11 23.1-18.3q0.4-0.5 0.7-1 0.3-0.7 0.6-2.2c1.9-10.2 1.4-46.3 0.8-69.4v-0.2c-0.3-11.6-0.6-19.8-0.6-19.8l1.1-10.8c0 0-20.7-30.1-42.8-46.7 0 0-14.3-10.3-36.8-12.6l-30.8-25.6v-3.9c0 0 22.2 20.9 40 27.5 17.9 6.6 28.5 9.5 28.5 9.5l5.1-15.5c0 0 12.6-9.2 9-68.4l4-4.8c0 0-3.8 40.6-0.4 64l-6.5 11.1c0 0-6.1 10.4-0.4 21.8 5.8 11.5 34.4 30.1 34.4 30.1v-31.4c0 0 8.8-53.2 12.2-102.8 0.6-9.7 1.1-19.3 1.2-28.3l8.6-5.2c0 0-2.5 15.2-5.3 34.5-3.8 26.7-8.3 61.4-7.6 75l14.7-7c0 0 10-21.6 13.1-61.8l2.5-1.6z"/>
					<path id="&lt;Compound Path&gt;" fill-rule="evenodd" class="s4" d="m571 49.3c-2.2 8.5-10.6 43-10.6 64.7l-5.8 5.9c0 0-5.5-2.4-15 10.2-5.4 7.2-4.6 24-3 37.2l-5.3 11.2-0.6 7.7-3 5.1 1.3 3.9 6.1 10.4 1.9 17.1v0.2l0.1 2.4v0.3 0.7l-3-17.7-6.4-5.6v8.2l4.1 14.3 3.1 27.1 6 14 2.8 6.2 0.9 4.9 0.1 0.6v-0.1l-9.8-19.6-3.1-19.5v18.6l3.1 34.6 6.7 21.4 4-2.5 4.4-7.4-2.6 10.3c0 0-12.7 24.2-11.4 38.7l-46.5 1.2 11.1-41.4c0 0 20-12.1 23.8-19.3 3.8-7.2 0.8-91.6 0.8-91.6l1.1-10.8c0 0-20.7-30.1-42.8-46.7 0 0-14.3-10.3-36.8-12.6l-30.8-25.6v-3.9c0 0 22.2 20.9 40 27.5 17.9 6.6 28.5 9.5 28.5 9.5l5.1-15.5c0 0 12.6-9.2 9-68.4l4-4.8c0 0-3.8 40.6-0.4 64l-6.5 11.1c0 0-6.1 10.4-0.4 21.8 5.8 11.5 34.4 30.1 34.4 30.1v-31.4c0 0 8.8-53.2 12.2-102.8l4.5 1c-3.8 26.7-8.3 61.4-7.6 75l14.7-7c0 0 10-21.6 13.1-61.8l2.5-1.6zm-46.9 250.3l-5.2 7.1v20.6l8.9 9.7 7.1-7.4v-22.9z"/>
					<path id="&lt;Path&gt;" class="s15" d="m752.2 0q0 0 0 0.1c-2 42.9-38.7 79.6-38.7 79.6l3.8-15.3c-32.6 36-84.7 41.7-84.7 41.7 16.5-3.8 29.5-19.3 29.5-19.3-56.6-31.7-154.9-33.8-154.9-33.8l6-8.1c-21.8 7.4-61.4 40.4-62.6 41.4l4.5-5.2c-35.6 11.5-54 43.5-54 43.5 5.4 4 11.2 4.1 11.2 4.1-22.7 1.5-58.1-6.4-58.1-6.4h24.2c-16.7-8.9-56.3-35.7-56.3-35.7l-0.3 8.1c0 0-27.6-20.2-32.8-30.4-5.1-10.2-22.4-64.3-22.4-64.3z"/>
					<path id="&lt;Path&gt;" class="s4" d="m516 306.6l-7.2 27 0.3 19.9-19.6 0.5 11.1-41.4c0 0 18.2-11 23.1-18.3z"/>
					<path id="&lt;Path&gt;" class="s4" d="m534.9 329.5v-22.9l-10.8-7.1 0.9-8.4c1.9-10.2 1.4-46.3 0.8-69.4v-0.2l2.8 42.4 6.2 27.2 2.3 8.4z"/>
					<path id="&lt;Path&gt;" class="s6" d="m713.5 79.7l3.8-15.3c-32.6 36-84.7 41.7-84.7 41.7 16.5-3.8 29.5-19.3 29.5-19.3-56.6-31.7-154.9-33.8-154.9-33.8l6-8.1c-21.8 7.4-61.4 40.4-62.6 41.4l4.5-5.2c-35.6 11.5-54 43.5-54 43.5 5.4 4 11.2 4.1 11.2 4.1-22.7 1.5-58.1-6.4-58.1-6.4h24.2c-16.7-8.9-56.3-35.7-56.3-35.7l-0.3 8.1c0 0-27.6-20.2-32.8-30.4-5.1-10.2-22.4-64.3-22.4-64.3h83.8l-7.1 13.3 37.3 54.3c0 0 26.8 3.1 45.4 0l-14 4.9-5.2 10.9c0 0 34.5-0.2 72.4-31 38-30.8 21.3-52.4 21.3-52.4h40.8c0 0-22 12.9-25.9 30 0 0 80 28.3 154 25.5l-8.5 3.5c0 0 22 5.4 53.5-5.4 30.5-10.4 37.4-50.9 37.8-53.5-2 42.9-38.7 79.6-38.7 79.6z"/>
					<path id="&lt;Path&gt;" class="s16" d="m370.7 25.9c0 0-27.6 10.6-15.4 36.6 0 0 7.7-24.9 15.4-36.6z"/>
					<path id="&lt;Path&gt;" class="s17" d="m370.7 106.9c0 0-2.9 6.4-18.5 6.5z"/>
					<path id="&lt;Path&gt;" class="s18" d="m707.2 38.7c0 0 17.8-3.1 31.1-19.3 0 0-2.7 23.5-31.1 19.3z"/>
					<path id="&lt;Path&gt;" class="s19" d="m702.6 25.9c0 0-10 10.5-36 5.9 0 0 24.5-1.1 36-5.9z"/>
					<path id="&lt;Path&gt;" class="s20" d="m741.7 50.6c0 0 4.7 15.3-3.4 27.2z"/>
					<path id="&lt;Path&gt;" class="s21" d="m641.6 117.8c0 0-13.7 14.5-41.9 10.9 0 0 22.4-3.2 41.9-10.9z"/>
					<path id="&lt;Path&gt;" class="s22" d="m547.8 34.1c0 0-4.3 17.9 39 24.5 0 0-13.7-6.7-39-24.5z"/>
				</g>
			</g>
		</g>
	</g>
</svg>