<svg version="1.2" xmlns="http://www.w3.org/2000/svg" viewBox="0 0 800 400" width="800" height="400">
	<title>2110</title>
	<defs>
		<linearGradient id="g1" x1="733.4" y1="359" x2="761" y2="359" gradientUnits="userSpaceOnUse">
			<stop offset="0" stop-color="#57506b"/>
			<stop offset="1" stop-color="#74605e"/>
		</linearGradient>
		<linearGradient id="g2" x1="745.8" y1="92.1" x2="750" y2="92.1" gradientUnits="userSpaceOnUse">
			<stop offset="0" stop-color="#453b5a"/>
			<stop offset="1" stop-color="#74605e"/>
		</linearGradient>
		<linearGradient id="g3" x1="738.4" y1="275.7" x2="755.7" y2="275.7" gradientUnits="userSpaceOnUse">
			<stop offset="0" stop-color="#57506b"/>
			<stop offset="1" stop-color="#74605e"/>
		</linearGradient>
		<linearGradient id="g4" x1="738.4" y1="271.2" x2="759.2" y2="271.2" gradientUnits="userSpaceOnUse">
			<stop offset="0" stop-color="#57506b"/>
			<stop offset="1" stop-color="#74605e"/>
		</linearGradient>
		<linearGradient id="g5" x1="732.6" y1="92.1" x2="732.6" y2="75.5" gradientUnits="userSpaceOnUse">
			<stop offset="0" stop-color="#57506b"/>
			<stop offset="1" stop-color="#74605e"/>
		</linearGradient>
		<linearGradient id="g6" x1="751.5" y1="107.2" x2="751.5" y2="103.6" gradientUnits="userSpaceOnUse">
			<stop offset="0" stop-color="#57506b"/>
			<stop offset="1" stop-color="#74605e"/>
		</linearGradient>
		<linearGradient id="g7" x1="708" y1="114.3" x2="708" y2="106.8" gradientUnits="userSpaceOnUse">
			<stop offset="0" stop-color="#57506b"/>
			<stop offset="1" stop-color="#74605e"/>
		</linearGradient>
		<linearGradient id="g8" x1="705.7" y1="141.5" x2="705.7" y2="116.4" gradientUnits="userSpaceOnUse">
			<stop offset="0" stop-color="#57506b"/>
			<stop offset="1" stop-color="#74605e"/>
		</linearGradient>
		<linearGradient id="g9" x1="721.6" y1="117.9" x2="721.6" y2="111.7" gradientUnits="userSpaceOnUse">
			<stop offset="0" stop-color="#57506b"/>
			<stop offset="1" stop-color="#74605e"/>
		</linearGradient>
		<linearGradient id="g10" x1="721.7" y1="144.8" x2="721.7" y2="140.3" gradientUnits="userSpaceOnUse">
			<stop offset="0" stop-color="#57506b"/>
			<stop offset="1" stop-color="#74605e"/>
		</linearGradient>
		<linearGradient id="g11" x1="766" y1="112.5" x2="766.3" y2="105" gradientUnits="userSpaceOnUse">
			<stop offset="0" stop-color="#57506b"/>
			<stop offset="1" stop-color="#74605e"/>
		</linearGradient>
		<linearGradient id="g12" x1="762.8" y1="139.6" x2="763.6" y2="114.5" gradientUnits="userSpaceOnUse">
			<stop offset="0" stop-color="#57506b"/>
			<stop offset="1" stop-color="#74605e"/>
		</linearGradient>
		<linearGradient id="g13" x1="779.4" y1="116.5" x2="779.6" y2="110.4" gradientUnits="userSpaceOnUse">
			<stop offset="0" stop-color="#57506b"/>
			<stop offset="1" stop-color="#74605e"/>
		</linearGradient>
		<linearGradient id="g14" x1="778.7" y1="143.4" x2="778.8" y2="138.9" gradientUnits="userSpaceOnUse">
			<stop offset="0" stop-color="#57506b"/>
			<stop offset="1" stop-color="#74605e"/>
		</linearGradient>
		<radialGradient id="g15" cx="88" cy="263.3" r="119.8" gradientUnits="userSpaceOnUse">
			<stop offset="0" stop-color="#9893a3"/>
			<stop offset="1" stop-color="#7f7994"/>
		</radialGradient>
		<linearGradient id="g16" x1="91" y1="305.6" x2="89.4" y2="282.3" gradientUnits="userSpaceOnUse">
			<stop offset=".006" stop-color="#4c304e"/>
			<stop offset=".978" stop-color="#685b71"/>
		</linearGradient>
		<linearGradient id="g17" x1="277.3" y1="353.2" x2="307.7" y2="353.2" gradientUnits="userSpaceOnUse">
			<stop offset="0" stop-color="#57506b"/>
			<stop offset="1" stop-color="#74605e"/>
		</linearGradient>
		<linearGradient id="g18" x1="291" y1="60.3" x2="295.6" y2="60.3" gradientUnits="userSpaceOnUse">
			<stop offset="0" stop-color="#453b5a"/>
			<stop offset="1" stop-color="#74605e"/>
		</linearGradient>
		<linearGradient id="g19" x1="282.9" y1="261.8" x2="301.9" y2="261.8" gradientUnits="userSpaceOnUse">
			<stop offset="0" stop-color="#57506b"/>
			<stop offset="1" stop-color="#74605e"/>
		</linearGradient>
		<linearGradient id="g20" x1="282.9" y1="256.9" x2="305.7" y2="256.9" gradientUnits="userSpaceOnUse">
			<stop offset="0" stop-color="#57506b"/>
			<stop offset="1" stop-color="#74605e"/>
		</linearGradient>
		<linearGradient id="g21" x1="276.5" y1="60.3" x2="276.5" y2="42.1" gradientUnits="userSpaceOnUse">
			<stop offset="0" stop-color="#57506b"/>
			<stop offset="1" stop-color="#74605e"/>
		</linearGradient>
		<linearGradient id="g22" x1="297.2" y1="76.9" x2="297.2" y2="72.9" gradientUnits="userSpaceOnUse">
			<stop offset="0" stop-color="#57506b"/>
			<stop offset="1" stop-color="#74605e"/>
		</linearGradient>
		<linearGradient id="g23" x1="249.5" y1="84.7" x2="249.5" y2="76.4" gradientUnits="userSpaceOnUse">
			<stop offset="0" stop-color="#57506b"/>
			<stop offset="1" stop-color="#74605e"/>
		</linearGradient>
		<linearGradient id="g24" x1="247" y1="114.5" x2="247" y2="87" gradientUnits="userSpaceOnUse">
			<stop offset="0" stop-color="#57506b"/>
			<stop offset="1" stop-color="#74605e"/>
		</linearGradient>
		<linearGradient id="g25" x1="264.4" y1="88.6" x2="264.4" y2="81.9" gradientUnits="userSpaceOnUse">
			<stop offset="0" stop-color="#57506b"/>
			<stop offset="1" stop-color="#74605e"/>
		</linearGradient>
		<linearGradient id="g26" x1="264.5" y1="118.1" x2="264.5" y2="113.2" gradientUnits="userSpaceOnUse">
			<stop offset="0" stop-color="#57506b"/>
			<stop offset="1" stop-color="#74605e"/>
		</linearGradient>
		<linearGradient id="g27" x1="313.1" y1="82.7" x2="313.4" y2="74.4" gradientUnits="userSpaceOnUse">
			<stop offset="0" stop-color="#57506b"/>
			<stop offset="1" stop-color="#74605e"/>
		</linearGradient>
		<linearGradient id="g28" x1="309.6" y1="112.4" x2="310.5" y2="84.9" gradientUnits="userSpaceOnUse">
			<stop offset="0" stop-color="#57506b"/>
			<stop offset="1" stop-color="#74605e"/>
		</linearGradient>
		<linearGradient id="g29" x1="327.8" y1="87.1" x2="328.1" y2="80.4" gradientUnits="userSpaceOnUse">
			<stop offset="0" stop-color="#57506b"/>
			<stop offset="1" stop-color="#74605e"/>
		</linearGradient>
		<linearGradient id="g30" x1="327" y1="116.6" x2="327.2" y2="111.7" gradientUnits="userSpaceOnUse">
			<stop offset="0" stop-color="#57506b"/>
			<stop offset="1" stop-color="#74605e"/>
		</linearGradient>
		<radialGradient id="g31" cx="538" cy="269.3" r="119.8" gradientUnits="userSpaceOnUse">
			<stop offset="0" stop-color="#9893a3"/>
			<stop offset="1" stop-color="#7f7994"/>
		</radialGradient>
		<linearGradient id="g32" x1="541" y1="311.6" x2="539.4" y2="288.3" gradientUnits="userSpaceOnUse">
			<stop offset=".006" stop-color="#4c304e"/>
			<stop offset=".978" stop-color="#685b71"/>
		</linearGradient>
	</defs>
	<style>
		.s0 { fill: url(#g1) } 
		.s1 { fill: #ac96a8 } 
		.s2 { fill: url(#g2) } 
		.s3 { fill: url(#g3) } 
		.s4 { fill: url(#g4) } 
		.s5 { fill: url(#g5) } 
		.s6 { fill: url(#g6) } 
		.s7 { fill: url(#g7) } 
		.s8 { fill: url(#g8) } 
		.s9 { fill: url(#g9) } 
		.s10 { fill: url(#g10) } 
		.s11 { fill: #de9393 } 
		.s12 { fill: #ac7e90 } 
		.s13 { fill: #fdebd6 } 
		.s14 { fill: #371f40 } 
		.s15 { fill: url(#g11) } 
		.s16 { fill: url(#g12) } 
		.s17 { fill: url(#g13) } 
		.s18 { fill: url(#g14) } 
		.s19 { fill: #c0ac95 } 
		.s20 { fill: #ce705e } 
		.s21 { opacity: .4;mix-blend-mode: multiply;fill: #754d21 } 
		.s22 { fill: url(#g15) } 
		.s23 { fill: #d2c3cc } 
		.s24 { fill: #bfa8b7 } 
		.s25 { opacity: .2;mix-blend-mode: multiply;fill: #9a2c84 } 
		.s26 { fill: #6c6273 } 
		.s27 { opacity: .5;fill: #806c6d } 
		.s28 { opacity: .8;mix-blend-mode: multiply;fill: #826b99 } 
		.s29 { fill: url(#g16) } 
		.s30 { fill: #813036 } 
		.s31 { fill: #ec6e26 } 
		.s32 { fill: #fda84d } 
		.s33 { fill: url(#g17) } 
		.s34 { fill: url(#g18) } 
		.s35 { fill: url(#g19) } 
		.s36 { fill: url(#g20) } 
		.s37 { fill: url(#g21) } 
		.s38 { fill: url(#g22) } 
		.s39 { fill: url(#g23) } 
		.s40 { fill: url(#g24) } 
		.s41 { fill: url(#g25) } 
		.s42 { fill: url(#g26) } 
		.s43 { fill: url(#g27) } 
		.s44 { fill: url(#g28) } 
		.s45 { fill: url(#g29) } 
		.s46 { fill: url(#g30) } 
		.s47 { fill: url(#g31) } 
		.s48 { fill: url(#g32) } 
	</style>
	<g id="lantern_01">
		<g id="&lt;Clip Group&gt;">
			<g id="&lt;Group&gt;">
				<path id="&lt;Path&gt;" class="s0" d="m733.4 367.9l2.2-8.9h22.9l2.5 8.9c0 0-13.6 2.7-27.6 0z"/>
				<path id="&lt;Path&gt;" class="s1" d="m735.6 359c0 0 12.8 3.5 22.9 0z"/>
				<path id="&lt;Path&gt;" class="s2" d="m746 279.7l-0.2-187.6h4.2l-1.2 187.6z"/>
				<path id="&lt;Path&gt;" class="s3" d="m738.4 359.3l2.8-83.6h13.6l0.9 83.7c0 0-10.3 0.6-17.3-0.1z"/>
				<path id="&lt;Path&gt;" class="s4" d="m741.2 275.7l-2.8-2.8 20.8-1.7-4.4 4.5z"/>
				<path id="&lt;Path&gt;" class="s5" d="m747 92.1l-3.5-6.5 4.4-10.1h0.9l3.6 10.5-3.2 6.1z"/>
				<path id="&lt;Path&gt;" class="s6" d="m719.7 105.7l63.7-2.1v2.1l-63.7 1.5z"/>
				<path id="&lt;Path&gt;" class="s7" d="m721.5 114.3l-0.5-7.5h2v7.5z"/>
				<path id="&lt;Path&gt;" class="s8" d="m711.9 117.4l19.6-1-1.7 25.1h-15z"/>
				<path id="&lt;Path&gt;" class="s9" d="m710.3 117.9l-0.2-0.7 10.8-5.5h2.5l11.1 5.1v1.1l-11.7-1.5z"/>
				<path id="&lt;Path&gt;" class="s10" d="m711.9 140.3h20.6l-0.3 1.1-6.8 3.4h-6.2l-7.3-3.6z"/>
				<path id="&lt;Path&gt;" class="s11" d="m713.4 120l1.9 20.3h6.4v-21.4z"/>
				<path id="&lt;Path&gt;" class="s12" d="m722.8 117.9l8.4 1-1.2 21.4h-7.7z"/>
				<path id="&lt;Path&gt;" class="s13" d="m723.3 118.9l-0.5 21.4h6.5l1.1-20z"/>
				<path id="&lt;Path&gt;" class="s14" d="m710.3 117.9l1.9 1.4-0.1-0.7 10.7-1.2 8.5 0.9 3.2-0.4-11.7-2.2z"/>
				<path id="&lt;Path&gt;" class="s12" d="m722.3 111.7l0.5 4 11.7 2.2v-1.1l-11.1-5.1z"/>
				<path id="&lt;Path&gt;" class="s12" d="m722.3 140.3l0.1 1.8 9.8-0.7 0.3-1.1z"/>
				<path id="&lt;Path&gt;" class="s15" d="m779.5 112.9l-0.3-7.5 2 0.1-0.2 7.5z"/>
				<path id="&lt;Path&gt;" class="s16" d="m769.8 115.7l19.6-0.3-2.5 25-15.1-0.5z"/>
				<path id="&lt;Path&gt;" class="s17" d="m768.2 116.1l-0.2-0.6 10.9-5.1h2.6l10.9 5.5v1l-11.7-1.8z"/>
				<path id="&lt;Path&gt;" class="s18" d="m769 138.6l20.6 0.7-0.3 1-7 3.2-6.1-0.2-7.2-3.8z"/>
				<path id="&lt;Path&gt;" class="s11" d="m771.2 118.4l1.2 20.3 6.4 0.2 0.8-21.4z"/>
				<path id="&lt;Path&gt;" class="s12" d="m780.6 116.6l8.5 1.2-2 21.4-7.6-0.3z"/>
				<path id="&lt;Path&gt;" class="s13" d="m781.1 117.6l-1.2 21.3 6.6 0.2 1.6-19.9z"/>
				<path id="&lt;Path&gt;" class="s14" d="m768.2 116.1l1.9 1.5-0.1-0.7 10.6-0.9 8.5 1.3 3.3-0.4-11.7-2.5z"/>
				<path id="&lt;Path&gt;" class="s12" d="m780.4 110.4l0.3 4 11.7 2.5v-1l-10.9-5.5z"/>
				<path id="&lt;Path&gt;" class="s12" d="m779.5 138.9v1.8l9.8-0.4 0.3-1z"/>
				<path id="&lt;Path&gt;" class="s19" d="m745.8 285.1l9.1-1.3 0.3 30.5c0 0-4.7 0.8-10.6 0z"/>
				<path id="&lt;Path&gt;" class="s20" d="m740.3 318.4l7.3-0.7-0.7 18.5-6.6-0.1z"/>
				<path id="&lt;Path&gt;" class="s21" d="m738.4 272.9l12.6-1-1 3.8-7.9 72.2c0 0 4.2 6.4 8.9 8.1l4.7-2.4v5.8l-13.1 0.2-1.5 0.4-2.7 8.7-5-0.8 2.2-8.9 2.8 0.3 2.8-83.6z"/>
				<path id="&lt;Path&gt;" class="s14" d="m743.5 85.6l8.9 0.4-3.2 6.1h-2.2z"/>
			</g>
		</g>
	</g>
	<g id="bench_01">
		<g id="&lt;Clip Group&gt;">
			<g id="&lt;Group&gt;">
				<g id="&lt;Group&gt;">
					<g id="&lt;Group&gt;">
						<path id="&lt;Path&gt;" class="s22" d="m240.1 350.8h-313.3v-12.1-12.8-0.3l4.1-5.4 0.1-0.1h305.3z"/>
						<path id="&lt;Path&gt;" class="s23" d="m236.3 320.1l-21.2 0.3-35.8 0.4-31.4 0.3-20.3 0.3-43 0.4-16.2 0.2h-1.8l-30.5-0.4-39.8-0.6-31.4-0.4-13.6-0.2h-0.7l-14.1-0.2-5.5-0.1 0.2-0.3h0.2l6.2-1.4 2.1-0.5 2-0.4h283.1z"/>
						<path id="&lt;Path&gt;" class="s24" d="m-73.2 325.9l24.5-5.5-20.3-0.3z"/>
						<path id="&lt;Path&gt;" class="s25" d="m85.6 316.6c-1.6 0.6-3.3 1.6-3.3 2.9h-6.7z"/>
						<path id="&lt;Path&gt;" class="s25" d="m85.6 316.6c1.5-0.6 2.9-0.9 3.1-0.9z"/>
						<path id="&lt;Path&gt;" class="s25" d="m114.4 315.7v3.8h-3.3z"/>
						<path id="&lt;Path&gt;" class="s26" d="m5.4 350.8h-56.1c3.9-5.1 13.1-15.3 22.9-15.4 3.9 0 7.7 0.2 11.2 0.7q0.7 0.1 1.3 0.2h0.1l1 0.2c6.9 1.1 12.4 3.1 15.2 5.3 2.5 2 3.8 5.9 4.4 9z"/>
						<path id="&lt;Path&gt;" class="s26" d="m65.3 350.8h-40.6c-0.8-2.5-2.3-6 0.7-9.5 4.2-5 23.4-11.5 34.6-0.8 1.7 1.5 4.1 6.8 5.3 10.3z"/>
						<path id="&lt;Path&gt;" class="s26" d="m91.3 350.8h-24.3c-0.8-3.2-2-8.1-1.7-9.3 0.5-1.7 20.3 2.5 21.8 3.6 1.1 0.8 3.1 3.9 4.2 5.7z"/>
						<path id="&lt;Path&gt;" class="s26" d="m178.8 350.8h-52.4c4.3-4.4 12.9-12 20.6-12.6 1.9-0.2 3.9-0.2 6-0.1q1 0 2 0.1 0.1 0 0.2 0 1.9 0.1 3.9 0.4 0.5 0 0.9 0.1h0.1q0 0 0 0c7.8 0.9 15 2.7 16.6 3.8 1.6 1 2 5.1 2.1 8.3z"/>
						<path id="&lt;Path&gt;" class="s26" d="m206.4 350.8h-24.2c-0.7-2.5-0.8-7.1-0.2-8.2 1.8-3.2 12.4-6.3 13.9-6.3 3.8-0.1 9.6 10.4 10.5 14.5z"/>
						<path id="&lt;Path&gt;" class="s27" d="m21.9 349.8c-0.2 0-1.1 0-2.4 0-4.1-0.2-11.8-0.7-12.5-1.5-0.8-0.8-2.3-6.5-2.8-8.6v-0.1c-0.2-0.4-0.2-0.7-0.2-0.7 1.5-1.5 17.3 3.5 17.4 4.5 0.2 1 1.5 6.4 0.5 6.4z"/>
						<path id="&lt;Path&gt;" class="s26" d="m34.3 323.8c-1.3 0.4-3.8 3.9-3.8 4.4 0 0.5 1.8 5.1 2.5 5.5 0.8 0.4 5.9-0.9 5.9-1.9 0-1-4.6-8-4.6-8z"/>
						<path id="&lt;Path&gt;" class="s27" d="m36.1 321.6c0 0 7.3 10 8.7 10.7 1.5 0.7 19 2.5 20 1.5 1-1 1.8-11.8 1.8-11.8l-1-3.7-27.5 1.2z"/>
						<path id="&lt;Path&gt;" class="s27" d="m69.3 325.2c0 0-3.8 12.4-2.7 13 1.2 0.6 9.6 2.8 9.9 2.2 0.2-0.6 5.9-12.2 3.8-13.1-2.1-1-11-2.1-11-2.1z"/>
						<path id="&lt;Path&gt;" class="s26" d="m-44.6 323c5.7-0.1 11.2 9.8 11.2 10.8 0 1-13.7 9.5-17.1 9-3.3-0.5-4.5-15.3-2.9-16.9 1.6-1.6 8.8-2.9 8.8-2.9z"/>
						<path id="&lt;Path&gt;" class="s26" d="m-60.7 350.8h-12.5v-12.1c2.6 0.7 6.9 1.9 7.9 2.6 1.2 0.8 3.6 6.8 4.6 9.5z"/>
						<path id="&lt;Path&gt;" class="s26" d="m-68.2 335.4c0 0 1.1 2.9 1.5 3.4 0.4 0.5 5.5 1 5.7 0 0.2-1 0.3-6.8 0-7.1-0.3-0.4-7.1 2.9-7.2 3.7z"/>
						<path id="&lt;Path&gt;" class="s27" d="m-35.1 320.6c0 0 4.2 9.7 5.2 10.2 1 0.5 20.4 3 20.9 3 0.5 0 5.3-12.8 5.3-12.8v-1.5l-30.7-0.1z"/>
						<path id="&lt;Path&gt;" class="s27" d="m147.9 320.9c0 0 3.7 14.9 4.7 15.5 1 0.6 20.5 3.6 21 3.6 0.5 0 5.7-18.6 5.7-18.6v-1.9l-30.7-0.1z"/>
						<path id="&lt;Path&gt;" class="s27" d="m-3.5 326.3c0 0-2.5 8-2.2 9 0.2 1 4.7 2.3 5.5 1.9 0.7-0.4 4.1-4.7 3.9-5.3-0.2-0.6-6.2-6.1-7.2-5.6z"/>
						<path id="&lt;Path&gt;" class="s26" d="m-0.7 323c0.2 0.9 2.2 3.3 3.2 3.8 1 0.5 3.8-3.1 3.1-3.8-0.6-0.6-6.6-0.8-6.3 0z"/>
						<path id="&lt;Path&gt;" class="s26" d="m131.1 339.3c0 0 2.2-8.1 1.9-9.1-0.3-1-4.9-2.1-5.6-1.7-0.7 0.5-3.9 4.9-3.7 5.5 0.2 0.6 6.4 5.8 7.4 5.3z"/>
						<path id="&lt;Path&gt;" class="s27" d="m139.6 336c-0.7-0.4-3.9-0.7-4.9-0.4-1.1 0.4-0.4 4.9 0.5 4.9 0.9 0 5.2-4.1 4.4-4.5z"/>
						<path id="&lt;Path&gt;" class="s26" d="m224.8 350.8h-16.9c-0.5-2-1-7-0.7-8 0.3-1.2 5.8-6 7-5.6 1 0.3 8.8 11.1 10.6 13.6z"/>
						<path id="&lt;Path&gt;" class="s27" d="m199.3 332c0.8 1.1 5.2 3.6 7 3.7 1.7 0.2 3.7-6.8 2.4-7.4-1.3-0.6-10.2 2.6-9.4 3.7z"/>
						<path id="&lt;Path&gt;" class="s27" d="m91.4 318.7c0 0-7 10.8-5.2 13.3 2.5 3.3 11.4 12.3 13.4 12.3 2 0 24.1-18.7 26-21.5 1.9-2.7 1.7-3.9 1.7-3.9z"/>
						<path id="&lt;Path&gt;" class="s27" d="m240.1 350.8h-13c-4.8-5.4-14.1-23.9-13.8-25.7 0.1-0.6 0.8-2.4 1.8-4.7q0.1-0.2 0.1-0.3 0.2-0.3 0.3-0.6 0.4-1 0.9-2 0.1-0.3 0.2-0.6c0.6-1.2 1.2-2.5 1.8-3.8q0.3-0.6 0.5-1.2 0.2-0.2 0.3-0.5 0 0 0 0 0.1-0.2 0.2-0.4 0 0 0 0 0-0.1 0.1-0.2l2.8 0.2v6.5h2.5l11.5 2.6z"/>
						<path id="&lt;Path&gt;" class="s26" d="m124.4 350.8h-16.8c-0.1-1.5-0.3-5.8 0.5-6.1 1-0.4 7.1-7.9 9.3-7.6 2.2 0.2 9.8 7.8 10.4 8.2 0.6 0.4-2.3 4.1-3.4 5.5z"/>
						<path id="&lt;Path&gt;" class="s25" d="m153 338.1l2 0.2-7.8 12.5h-8.2l14-12.7z"/>
						<path id="&lt;Path&gt;" class="s25" d="m159.1 338.6l-4.1-0.3v-0.1h0.2l3.9 0.4z"/>
						<path id="&lt;Path&gt;" class="s25" d="m160.1 338.7l-5.1 12.1h-1.4l5.5-12.2 0.9 0.1h0.1z"/>
						<path id="&lt;Path&gt;" class="s25" d="m-16.6 336.1l-0.3 0.2-6.2 14.5h-27.6c3.9-5.1 13.1-15.3 22.9-15.4 3.9 0 7.7 0.2 11.2 0.7z"/>
						<path id="&lt;Path&gt;" class="s25" d="m-14.2 336.5l-0.4 14.3h-6.3l5.6-14.5h0.1z"/>
						<path id="&lt;Path&gt;" class="s28" d="m-73.2 350.8l12.1-1 88.4 1 7.2-2.2 26.7 2.2c0 0 93.1-1.2 113.1-1.1 20 0.1 65.8 1.1 65.8 1.1z"/>
					</g>
					<path id="&lt;Path&gt;" class="s29" d="m-38.1 316.9h260.4v2.6h-260.4z"/>
					<g id="&lt;Group&gt;">
						<g id="&lt;Group&gt;">
							<path id="&lt;Path&gt;" class="s30" d="m-40.7 319.5h-19.6v-8.5l19.6-0.5z"/>
							<path id="&lt;Path&gt;" class="s31" d="m-62.4 311h16.6v8.5h-16.6z"/>
							<path id="&lt;Path&gt;" class="s25" d="m-45.8 314.5v1.4c-2.5-0.3-9.7-1-12.2 3.6h-1.7c0 0 3.7-3.4 8.6-4.3 2.6-0.4 4.3-0.6 5.3-0.7z"/>
							<path id="&lt;Path&gt;" class="s32" d="m-62.4 311l6-0.5h15.7l-5.1 0.5c0 0-9.8 1.2-16.6 0z"/>
						</g>
						<g id="&lt;Group&gt;">
							<path id="&lt;Path&gt;" class="s30" d="m-20.7 319.5h-17.7v-8.5l17.7-0.5z"/>
							<path id="&lt;Path&gt;" class="s31" d="m-40.7 311h16.6v8.5h-16.6z"/>
							<path id="&lt;Path&gt;" class="s25" d="m-24.1 311.9v0.2c-4.1-0.3-14.2-0.5-16.5 3.6h-0.1v-2.6c2.1-0.8 4.4-1.5 6.4-2.1h7.1z"/>
							<path id="&lt;Path&gt;" class="s32" d="m-40.7 311l6.4-0.5h13.6l-2.3 0.5c0 0-10.4 1.2-17.7 0z"/>
						</g>
						<g id="&lt;Group&gt;">
							<path id="&lt;Path&gt;" class="s30" d="m-0.5 319.5h-13.7v-8.5l13.7-0.5z"/>
							<path id="&lt;Path&gt;" class="s31" d="m-16 311h14.8v8.5h-14.8z"/>
							<path id="&lt;Path&gt;" class="s32" d="m-16 311l4.9-0.5h10.6l-1.7 0.5c0 0-8.2 1.2-13.8 0z"/>
						</g>
						<path id="&lt;Path&gt;" class="s25" d="m-16 316.7c0.4-0.2 7.5-1 7.5-1l-7.5 2.6z"/>
						<g id="&lt;Group&gt;">
							<path id="&lt;Path&gt;" class="s30" d="m20.2 319.5h-15.5v-8.5l15.5-0.5z"/>
							<path id="&lt;Path&gt;" class="s31" d="m2.7 311h16.6v8.5h-16.6z"/>
							<path id="&lt;Path&gt;" class="s32" d="m2.7 311l5.6-0.5h11.9l-2 0.5c0 0-9.1 1.2-15.5 0z"/>
						</g>
						<g id="&lt;Group&gt;">
							<path id="&lt;Path&gt;" class="s30" d="m44.8 319.5h-17.5v-8.5l17.5-0.5z"/>
							<path id="&lt;Path&gt;" class="s31" d="m25 311h18.9v8.5h-18.9z"/>
							<path id="&lt;Path&gt;" class="s32" d="m25 311l6.3-0.5h13.5l-2.2 0.5c0 0-10.4 1.2-17.6 0z"/>
						</g>
						<g id="&lt;Group&gt;">
							<path id="&lt;Path&gt;" class="s30" d="m69.1 319.5h-18.1v-9.1l18.1-0.5z"/>
							<path id="&lt;Path&gt;" class="s31" d="m48.7 310.4h20.6v9.1h-20.6z"/>
							<path id="&lt;Path&gt;" class="s32" d="m48.7 310.4l6.5-0.5h13.9l-2.3 0.5c0 0-10.7 1.3-18.1 0z"/>
						</g>
						<g id="&lt;Group&gt;">
							<path id="&lt;Path&gt;" class="s30" d="m180.6 319.5h17.7v-8.5l-17.7-0.5z"/>
							<path id="&lt;Path&gt;" class="s31" d="m184 311h16.6v8.5h-16.6z"/>
							<path id="&lt;Path&gt;" class="s25" d="m184 314.5v1.4c2.4-0.3 9.6-1 12.2 3.6h1.7c0 0-3.7-3.4-8.6-4.3-2.6-0.4-4.3-0.6-5.3-0.7z"/>
							<path id="&lt;Path&gt;" class="s32" d="m200.6 311l-6.4-0.5h-13.6l2.2 0.5c0 0 10.5 1.2 17.8 0z"/>
						</g>
						<g id="&lt;Group&gt;">
							<path id="&lt;Path&gt;" class="s30" d="m160.1 319.5h16.6v-8.5l-16.6-0.5z"/>
							<path id="&lt;Path&gt;" class="s31" d="m162.3 311h16.6v8.5h-16.6z"/>
							<path id="&lt;Path&gt;" class="s25" d="m162.3 311.9v0.2c4-0.3 14.2-0.5 16.4 3.6h0.2v-2.6c-2.1-0.8-4.4-1.5-6.4-2.1h-7.1z"/>
							<path id="&lt;Path&gt;" class="s32" d="m178.9 311l-6-0.5h-12.8l2.2 0.5c0 0 9.7 1.2 16.6 0z"/>
						</g>
						<g id="&lt;Group&gt;">
							<path id="&lt;Path&gt;" class="s30" d="m201 319.5h19.1v-8.5l-19.1-0.5z"/>
							<path id="&lt;Path&gt;" class="s31" d="m205.7 311h16.6v8.5h-16.6z"/>
							<path id="&lt;Path&gt;" class="s25" d="m222.3 313.1v2.6h-0.2c-0.4-0.8-1.1-1.4-2-1.9q-0.8-0.4-1.7-0.7c-4-1.4-9.9-1.2-12.7-1v-0.2l2.2-0.7 0.9-0.2h7.1q0.8 0.2 1.6 0.5 0.7 0.2 1.4 0.4 0.6 0.2 1.2 0.4 1.1 0.4 2.2 0.8z"/>
							<path id="&lt;Path&gt;" class="s32" d="m222.3 311q-1.1 0.2-2.2 0.3-0.4 0-0.9 0.1 0 0 0 0-0.8 0-1.7 0.1c-3.6 0.1-7.3-0.1-9.6-0.3-1.4-0.1-2.2-0.2-2.2-0.2l-4.7-0.5h15.3l3.2 0.3z"/>
						</g>
						<g id="&lt;Group&gt;">
							<g id="&lt;Group&gt;">
								<path id="&lt;Path&gt;" class="s30" d="m139.3 319.5h15.4v-8.5l-15.4-0.5z"/>
								<path id="&lt;Path&gt;" class="s31" d="m140.1 311h16.6v8.5h-16.6z"/>
								<path id="&lt;Path&gt;" class="s32" d="m156.7 311l-5.5-0.5h-11.9l2 0.5c0 0 9.1 1.2 15.4 0z"/>
							</g>
							<path id="&lt;Path&gt;" class="s25" d="m156.7 314.1c-0.4-0.2-7.5-1-7.5-1l7.5 2.7z"/>
						</g>
						<g id="&lt;Group&gt;">
							<path id="&lt;Path&gt;" class="s30" d="m117.4 319.5h15.4v-8.5l-15.4-0.5z"/>
							<path id="&lt;Path&gt;" class="s31" d="m118.2 311h16.6v8.5h-16.6z"/>
							<path id="&lt;Path&gt;" class="s32" d="m134.8 311l-5.5-0.5h-11.9l2 0.5c0 0 9.1 1.2 15.4 0z"/>
						</g>
						<g id="&lt;Group&gt;">
							<path id="&lt;Path&gt;" class="s30" d="m97 319.5h15.4v-8.5l-15.4-0.5z"/>
							<path id="&lt;Path&gt;" class="s31" d="m97.8 311h16.6v8.5h-16.6z"/>
							<path id="&lt;Path&gt;" class="s32" d="m114.4 311l-5.6-0.5h-11.8l1.9 0.5c0 0 9.2 1.2 15.5 0z"/>
						</g>
						<g id="&lt;Group&gt;">
							<path id="&lt;Path&gt;" class="s30" d="m74.6 319.5h15.5v-8.5l-15.5-0.5z"/>
							<path id="&lt;Path&gt;" class="s31" d="m75.5 311h16.6v8.5h-16.6z"/>
							<path id="&lt;Path&gt;" class="s32" d="m92.1 311l-5.6-0.5h-11.9l2 0.5c0 0 9.1 1.2 15.5 0z"/>
						</g>
					</g>
				</g>
				<g id="&lt;Group&gt;">
					<path id="&lt;Path&gt;" class="s28" d="m240.1 350.8l-46.6 20.2-123 3c-32.2 5.7-90.5 3.3-90.8 16.8-0.2 12.5-73.5 8.6-73.5 8.6 0 0 77.3-23.3 133.9-32.6l-182-2.6 35.6-14.5z"/>
				</g>
			</g>
		</g>
	</g>
	<g id="lantern_02">
		<g id="&lt;Clip Group&gt;">
			<g id="&lt;Group&gt;">
				<path id="&lt;Path&gt;" class="s28" d="m307.7 363l-144.2 60-39-7 152.8-53z"/>
				<g id="&lt;Group&gt;">
					<path id="&lt;Path&gt;" class="s33" d="m277.3 363l2.5-9.8h25.1l2.8 9.8c0 0-15 2.9-30.4 0z"/>
					<path id="&lt;Path&gt;" class="s1" d="m279.8 353.2c0 0 14 3.9 25.1 0z"/>
					<path id="&lt;Path&gt;" class="s34" d="m291.1 266.1l-0.1-205.8h4.6l-1.3 205.8z"/>
					<path id="&lt;Path&gt;" class="s35" d="m282.9 353.6l3-91.8h14.9l1.1 91.9c0 0-11.4 0.6-19-0.1z"/>
					<path id="&lt;Path&gt;" class="s36" d="m285.9 261.8l-3-3.1 22.8-1.8-4.9 4.9z"/>
					<path id="&lt;Path&gt;" class="s37" d="m292.3 60.3l-3.9-7.2 4.9-11h0.9l4 11.5-3.5 6.7z"/>
					<path id="&lt;Path&gt;" class="s38" d="m262.3 75.2l70-2.3v2.3l-70 1.7z"/>
					<path id="&lt;Path&gt;" class="s39" d="m264.3 84.7l-0.6-8.3h2.2v8.3z"/>
					<path id="&lt;Path&gt;" class="s40" d="m253.8 88l21.5-1-1.9 27.5h-16.5z"/>
					<path id="&lt;Path&gt;" class="s41" d="m252 88.6l-0.2-0.7 11.8-6h2.8l12.2 5.5v1.2l-12.9-1.6z"/>
					<path id="&lt;Path&gt;" class="s42" d="m253.7 113.2h22.6l-0.3 1.2-7.5 3.7h-6.7l-8.1-3.9z"/>
					<path id="&lt;Path&gt;" class="s11" d="m255.4 90.9l2 22.3h7.1v-23.5z"/>
					<path id="&lt;Path&gt;" class="s12" d="m265.7 88.6l9.3 1.1-1.4 23.5h-8.4z"/>
					<path id="&lt;Path&gt;" class="s13" d="m266.3 89.7l-0.6 23.5h7.2l1.1-22z"/>
					<path id="&lt;Path&gt;" class="s14" d="m252 88.6l2.1 1.5-0.1-0.7 11.7-1.4 9.3 1.1 3.6-0.5-12.9-2.4z"/>
					<path id="&lt;Path&gt;" class="s12" d="m265.2 81.9l0.5 4.3 12.9 2.4v-1.2l-12.2-5.5z"/>
					<path id="&lt;Path&gt;" class="s12" d="m265.2 113.2l0.1 1.9 10.7-0.7 0.3-1.2z"/>
					<path id="&lt;Path&gt;" class="s43" d="m327.9 83.2l-0.3-8.3 2.2 0.1-0.3 8.2z"/>
					<path id="&lt;Path&gt;" class="s44" d="m317.3 86.2l21.5-0.3-2.7 27.4-16.6-0.5z"/>
					<path id="&lt;Path&gt;" class="s45" d="m315.5 86.7l-0.2-0.7 12-5.7 2.8 0.1 12 6v1.2l-12.9-2z"/>
					<path id="&lt;Path&gt;" class="s46" d="m316.4 111.3l22.6 0.7-0.4 1.2-7.6 3.5-6.7-0.2-7.9-4.1z"/>
					<path id="&lt;Path&gt;" class="s11" d="m318.8 89.1l1.3 22.3 7.1 0.3 0.8-23.5z"/>
					<path id="&lt;Path&gt;" class="s12" d="m329.2 87.1l9.2 1.5-2.1 23.4-8.4-0.3z"/>
					<path id="&lt;Path&gt;" class="s13" d="m329.7 88.3l-1.3 23.4 7.2 0.2 1.8-21.8z"/>
					<path id="&lt;Path&gt;" class="s14" d="m315.5 86.7l2.1 1.6-0.1-0.8 11.7-0.9 9.3 1.3 3.6-0.3-12.9-2.8z"/>
					<path id="&lt;Path&gt;" class="s12" d="m328.9 80.4l0.3 4.4 12.9 2.8v-1.2l-12-6z"/>
					<path id="&lt;Path&gt;" class="s12" d="m327.9 111.7v1.9l10.7-0.4 0.4-1.2z"/>
					<path id="&lt;Path&gt;" class="s19" d="m291 272.1l9.9-1.4 0.4 33.4c0 0-5.2 0.9-11.7 0z"/>
					<path id="&lt;Path&gt;" class="s20" d="m284.9 308.6l8-0.7-0.7 20.4-7.3-0.3z"/>
					<path id="&lt;Path&gt;" class="s21" d="m282.9 258.7l13.8-1.1-1.1 4.2-8.7 79.2c0 0 4.6 7.1 9.8 9l5.1-2.7 0.1 6.4-14.5 0.1-1.6 0.6-2.9 9.4-5.6-0.8 2.5-9.8 3.1 0.4 3-91.8z"/>
					<path id="&lt;Path&gt;" class="s14" d="m288.4 53.1l9.8 0.5-3.5 6.7h-2.4z"/>
				</g>
			</g>
		</g>
	</g>
	<g id="bench_02">
		<g id="&lt;Clip Group&gt;">
			<g id="&lt;Group&gt;">
				<g id="&lt;Group&gt;">
					<g id="&lt;Group&gt;">
						<path id="&lt;Path&gt;" class="s47" d="m690.1 356.8h-313.3v-12.1-12.8-0.3l4.1-5.4 0.1-0.1h305.3z"/>
						<path id="&lt;Path&gt;" class="s23" d="m686.3 326.1l-21.2 0.3-35.8 0.4-31.4 0.3-20.3 0.3-43 0.4-16.2 0.2h-1.8l-30.5-0.4-39.8-0.6-31.4-0.4-13.6-0.2h-0.7l-14.1-0.2-5.5-0.1 0.2-0.3h0.2l6.2-1.4 2.1-0.5 2-0.4h283.1z"/>
						<path id="&lt;Path&gt;" class="s24" d="m376.8 331.9l24.5-5.5-20.3-0.3z"/>
						<path id="&lt;Path&gt;" class="s25" d="m535.6 322.6c-1.6 0.6-3.3 1.6-3.3 2.9h-6.7z"/>
						<path id="&lt;Path&gt;" class="s25" d="m535.6 322.6c1.5-0.6 2.9-0.9 3.1-0.9z"/>
						<path id="&lt;Path&gt;" class="s25" d="m564.4 321.7v3.8h-3.3z"/>
						<path id="&lt;Path&gt;" class="s26" d="m455.4 356.8h-56.1c3.9-5.1 13.1-15.3 22.9-15.4 3.9 0 7.7 0.2 11.2 0.7q0.7 0.1 1.3 0.2h0.1l1 0.2c6.9 1.1 12.4 3.1 15.2 5.3 2.5 2 3.8 5.9 4.4 9z"/>
						<path id="&lt;Path&gt;" class="s26" d="m515.3 356.8h-40.6c-0.8-2.5-2.3-6 0.7-9.5 4.2-5 23.4-11.5 34.6-0.8 1.7 1.5 4.1 6.8 5.3 10.3z"/>
						<path id="&lt;Path&gt;" class="s26" d="m541.3 356.8h-24.3c-0.8-3.2-2-8.1-1.7-9.3 0.5-1.7 20.3 2.5 21.8 3.6 1.1 0.8 3.1 3.9 4.2 5.7z"/>
						<path id="&lt;Path&gt;" class="s26" d="m628.8 356.8h-52.4c4.3-4.4 12.9-12 20.6-12.6 1.9-0.2 3.9-0.2 6-0.1q1 0 2 0.1 0.1 0 0.2 0 1.9 0.1 3.9 0.4 0.5 0 0.9 0.1h0.1q0 0 0 0c7.8 0.9 15 2.7 16.6 3.8 1.6 1 2 5.1 2.1 8.3z"/>
						<path id="&lt;Path&gt;" class="s26" d="m656.4 356.8h-24.2c-0.7-2.5-0.8-7.1-0.2-8.2 1.8-3.2 12.4-6.3 13.9-6.3 3.8-0.1 9.6 10.4 10.5 14.5z"/>
						<path id="&lt;Path&gt;" class="s27" d="m471.9 355.8c-0.2 0-1.1 0-2.4 0-4.1-0.2-11.8-0.7-12.5-1.5-0.8-0.8-2.3-6.5-2.8-8.6v-0.1c-0.2-0.4-0.2-0.7-0.2-0.7 1.5-1.5 17.3 3.5 17.4 4.5 0.2 1 1.5 6.4 0.5 6.4z"/>
						<path id="&lt;Path&gt;" class="s26" d="m484.3 329.8c-1.3 0.4-3.8 3.9-3.8 4.4 0 0.5 1.8 5.1 2.5 5.5 0.8 0.4 5.9-0.9 5.9-1.9 0-1-4.6-8-4.6-8z"/>
						<path id="&lt;Path&gt;" class="s27" d="m486.1 327.6c0 0 7.3 10 8.7 10.7 1.5 0.7 19 2.5 20 1.5 1-1 1.8-11.8 1.8-11.8l-1-3.7-27.5 1.2z"/>
						<path id="&lt;Path&gt;" class="s27" d="m519.3 331.2c0 0-3.8 12.4-2.7 13 1.2 0.6 9.6 2.8 9.9 2.2 0.2-0.6 5.9-12.2 3.8-13.1-2.1-1-11-2.1-11-2.1z"/>
						<path id="&lt;Path&gt;" class="s26" d="m405.4 329c5.7-0.1 11.2 9.8 11.2 10.8 0 1-13.7 9.5-17.1 9-3.3-0.5-4.5-15.3-2.9-16.9 1.6-1.6 8.8-2.9 8.8-2.9z"/>
						<path id="&lt;Path&gt;" class="s26" d="m389.3 356.8h-12.5v-12.1c2.6 0.7 6.9 1.9 7.9 2.6 1.2 0.8 3.6 6.8 4.6 9.5z"/>
						<path id="&lt;Path&gt;" class="s26" d="m381.8 341.4c0 0 1.1 2.9 1.5 3.4 0.4 0.5 5.5 1 5.7 0 0.2-1 0.3-6.8 0-7.1-0.3-0.4-7.1 2.9-7.2 3.7z"/>
						<path id="&lt;Path&gt;" class="s27" d="m414.9 326.6c0 0 4.2 9.7 5.2 10.2 1 0.5 20.4 3 20.9 3 0.5 0 5.3-12.8 5.3-12.8v-1.5l-30.7-0.1z"/>
						<path id="&lt;Path&gt;" class="s27" d="m597.9 326.9c0 0 3.7 14.9 4.7 15.5 1 0.6 20.5 3.6 21 3.6 0.5 0 5.7-18.6 5.7-18.6v-1.9l-30.7-0.1z"/>
						<path id="&lt;Path&gt;" class="s27" d="m446.5 332.3c0 0-2.5 8-2.2 9 0.2 1 4.7 2.3 5.5 1.9 0.7-0.4 4.1-4.7 3.9-5.3-0.2-0.6-6.2-6.1-7.2-5.6z"/>
						<path id="&lt;Path&gt;" class="s26" d="m449.3 329c0.2 0.9 2.2 3.3 3.2 3.8 1 0.5 3.8-3.1 3.1-3.8-0.6-0.6-6.6-0.8-6.3 0z"/>
						<path id="&lt;Path&gt;" class="s26" d="m581.1 345.3c0 0 2.2-8.1 1.9-9.1-0.3-1-4.9-2.1-5.6-1.7-0.7 0.5-3.9 4.9-3.7 5.5 0.2 0.6 6.4 5.8 7.4 5.3z"/>
						<path id="&lt;Path&gt;" class="s27" d="m589.6 342c-0.7-0.4-3.9-0.7-4.9-0.4-1.1 0.4-0.5 4.9 0.5 4.9 0.9 0 5.2-4.1 4.4-4.5z"/>
						<path id="&lt;Path&gt;" class="s26" d="m674.8 356.8h-16.9c-0.5-2-1-7-0.7-8 0.3-1.2 5.8-6 7-5.6 1 0.3 8.8 11.1 10.6 13.6z"/>
						<path id="&lt;Path&gt;" class="s27" d="m649.3 338c0.8 1.1 5.2 3.6 7 3.7 1.7 0.2 3.7-6.8 2.4-7.4-1.3-0.6-10.2 2.6-9.4 3.7z"/>
						<path id="&lt;Path&gt;" class="s27" d="m541.4 324.7c0 0-7 10.8-5.2 13.3 2.5 3.3 11.4 12.3 13.4 12.3 2 0 24.1-18.7 26-21.5 1.9-2.7 1.7-3.9 1.7-3.9z"/>
						<path id="&lt;Path&gt;" class="s27" d="m690.1 356.8h-13c-4.8-5.4-14.1-23.9-13.8-25.7 0.1-0.6 0.8-2.4 1.8-4.7q0.1-0.2 0.1-0.3 0.2-0.3 0.3-0.6 0.4-1 0.9-2 0.1-0.3 0.2-0.6c0.6-1.2 1.2-2.5 1.8-3.8q0.3-0.6 0.5-1.2 0.2-0.2 0.3-0.5 0 0 0 0 0.1-0.2 0.2-0.4 0 0 0 0 0-0.1 0.1-0.2l2.8 0.2v6.5h2.5l11.5 2.6z"/>
						<path id="&lt;Path&gt;" class="s26" d="m574.4 356.8h-16.8c-0.1-1.5-0.3-5.8 0.5-6.1 1-0.4 7.1-7.9 9.3-7.6 2.2 0.2 9.8 7.8 10.4 8.2 0.6 0.4-2.3 4.1-3.4 5.5z"/>
						<path id="&lt;Path&gt;" class="s25" d="m603 344.1l2 0.2-7.8 12.5h-8.2l14-12.7z"/>
						<path id="&lt;Path&gt;" class="s25" d="m609.1 344.6l-4.1-0.3v-0.1h0.2l3.9 0.4z"/>
						<path id="&lt;Path&gt;" class="s25" d="m610.1 344.7l-5.1 12.1h-1.4l5.5-12.2 0.9 0.1h0.1z"/>
						<path id="&lt;Path&gt;" class="s25" d="m433.4 342.1l-0.3 0.2-6.2 14.5h-27.6c3.9-5.1 13.1-15.3 22.9-15.4 3.9 0 7.7 0.2 11.2 0.7z"/>
						<path id="&lt;Path&gt;" class="s25" d="m435.8 342.5l-0.4 14.3h-6.3l5.6-14.5h0.1z"/>
						<path id="&lt;Path&gt;" class="s28" d="m376.8 356.8l12.1-1 88.4 1 7.2-2.2 26.7 2.2c0 0 93.1-1.2 113.1-1.1 20 0.1 65.8 1.1 65.8 1.1z"/>
					</g>
					<path id="&lt;Path&gt;" class="s48" d="m411.9 322.9h260.4v2.6h-260.4z"/>
					<g id="&lt;Group&gt;">
						<g id="&lt;Group&gt;">
							<path id="&lt;Path&gt;" class="s30" d="m409.3 325.5h-19.6v-8.5l19.6-0.5z"/>
							<path id="&lt;Path&gt;" class="s31" d="m387.6 317h16.6v8.5h-16.6z"/>
							<path id="&lt;Path&gt;" class="s25" d="m404.2 320.5v1.4c-2.5-0.3-9.7-1-12.2 3.6h-1.7c0 0 3.7-3.4 8.6-4.3 2.6-0.4 4.3-0.6 5.3-0.7z"/>
							<path id="&lt;Path&gt;" class="s32" d="m387.6 317l6-0.5h15.7l-5.1 0.5c0 0-9.8 1.2-16.6 0z"/>
						</g>
						<g id="&lt;Group&gt;">
							<path id="&lt;Path&gt;" class="s30" d="m429.3 325.5h-17.7v-8.5l17.7-0.5z"/>
							<path id="&lt;Path&gt;" class="s31" d="m409.3 317h16.6v8.5h-16.6z"/>
							<path id="&lt;Path&gt;" class="s25" d="m425.9 317.9v0.2c-4.1-0.3-14.2-0.5-16.5 3.6h-0.1v-2.6c2.1-0.8 4.4-1.5 6.4-2.1h7.1z"/>
							<path id="&lt;Path&gt;" class="s32" d="m409.3 317l6.4-0.5h13.6l-2.3 0.5c0 0-10.4 1.2-17.7 0z"/>
						</g>
						<g id="&lt;Group&gt;">
							<path id="&lt;Path&gt;" class="s30" d="m449.5 325.5h-13.7v-8.5l13.7-0.5z"/>
							<path id="&lt;Path&gt;" class="s31" d="m434 317h14.8v8.5h-14.8z"/>
							<path id="&lt;Path&gt;" class="s32" d="m434 317l4.9-0.5h10.6l-1.7 0.5c0 0-8.2 1.2-13.8 0z"/>
						</g>
						<path id="&lt;Path&gt;" class="s25" d="m434 322.7c0.4-0.2 7.5-1 7.5-1l-7.5 2.6z"/>
						<g id="&lt;Group&gt;">
							<path id="&lt;Path&gt;" class="s30" d="m470.2 325.5h-15.5v-8.5l15.5-0.5z"/>
							<path id="&lt;Path&gt;" class="s31" d="m452.7 317h16.6v8.5h-16.6z"/>
							<path id="&lt;Path&gt;" class="s32" d="m452.7 317l5.6-0.5h11.9l-2 0.5c0 0-9.1 1.2-15.5 0z"/>
						</g>
						<g id="&lt;Group&gt;">
							<path id="&lt;Path&gt;" class="s30" d="m494.8 325.5h-17.5v-8.5l17.5-0.5z"/>
							<path id="&lt;Path&gt;" class="s31" d="m475 317h18.9v8.5h-18.9z"/>
							<path id="&lt;Path&gt;" class="s32" d="m475 317l6.3-0.5h13.5l-2.2 0.5c0 0-10.4 1.2-17.6 0z"/>
						</g>
						<g id="&lt;Group&gt;">
							<path id="&lt;Path&gt;" class="s30" d="m519.1 325.5h-18.1v-9.1l18.1-0.5z"/>
							<path id="&lt;Path&gt;" class="s31" d="m498.7 316.4h20.6v9.1h-20.6z"/>
							<path id="&lt;Path&gt;" class="s32" d="m498.7 316.4l6.5-0.5h13.9l-2.3 0.5c0 0-10.7 1.3-18.1 0z"/>
						</g>
						<g id="&lt;Group&gt;">
							<path id="&lt;Path&gt;" class="s30" d="m630.6 325.5h17.7v-8.5l-17.7-0.5z"/>
							<path id="&lt;Path&gt;" class="s31" d="m634 317h16.6v8.5h-16.6z"/>
							<path id="&lt;Path&gt;" class="s25" d="m634 320.5v1.4c2.4-0.3 9.6-1 12.2 3.6h1.7c0 0-3.7-3.4-8.6-4.3-2.6-0.4-4.3-0.6-5.3-0.7z"/>
							<path id="&lt;Path&gt;" class="s32" d="m650.6 317l-6.4-0.5h-13.6l2.2 0.5c0 0 10.5 1.2 17.8 0z"/>
						</g>
						<g id="&lt;Group&gt;">
							<path id="&lt;Path&gt;" class="s30" d="m610.1 325.5h16.6v-8.5l-16.6-0.5z"/>
							<path id="&lt;Path&gt;" class="s31" d="m612.3 317h16.6v8.5h-16.6z"/>
							<path id="&lt;Path&gt;" class="s25" d="m612.3 317.9v0.2c4-0.3 14.2-0.5 16.4 3.6h0.2v-2.6c-2.1-0.8-4.4-1.5-6.4-2.1h-7.1z"/>
							<path id="&lt;Path&gt;" class="s32" d="m628.9 317l-6-0.5h-12.8l2.2 0.5c0 0 9.7 1.2 16.6 0z"/>
						</g>
						<g id="&lt;Group&gt;">
							<path id="&lt;Path&gt;" class="s30" d="m651 325.5h19.1v-8.5l-19.1-0.5z"/>
							<path id="&lt;Path&gt;" class="s31" d="m655.7 317h16.6v8.5h-16.6z"/>
							<path id="&lt;Path&gt;" class="s25" d="m672.3 319.1v2.6h-0.2c-0.4-0.8-1.1-1.4-2-1.9q-0.8-0.4-1.7-0.7c-4-1.4-9.9-1.2-12.7-1v-0.2l2.2-0.7 0.9-0.2h7.1q0.8 0.2 1.6 0.5 0.7 0.2 1.4 0.4 0.6 0.2 1.2 0.4 1.1 0.4 2.2 0.8z"/>
							<path id="&lt;Path&gt;" class="s32" d="m672.3 317q-1.1 0.2-2.2 0.3-0.4 0-0.9 0.1 0 0 0 0-0.8 0-1.7 0.1c-3.6 0.1-7.3-0.1-9.6-0.3-1.4-0.1-2.2-0.2-2.2-0.2l-4.7-0.5h15.3l3.2 0.3z"/>
						</g>
						<g id="&lt;Group&gt;">
							<g id="&lt;Group&gt;">
								<path id="&lt;Path&gt;" class="s30" d="m589.3 325.5h15.4v-8.5l-15.4-0.5z"/>
								<path id="&lt;Path&gt;" class="s31" d="m590.1 317h16.6v8.5h-16.6z"/>
								<path id="&lt;Path&gt;" class="s32" d="m606.7 317l-5.5-0.5h-11.9l2 0.5c0 0 9.1 1.2 15.4 0z"/>
							</g>
							<path id="&lt;Path&gt;" class="s25" d="m606.7 320.1c-0.4-0.2-7.5-1-7.5-1l7.5 2.7z"/>
						</g>
						<g id="&lt;Group&gt;">
							<path id="&lt;Path&gt;" class="s30" d="m567.4 325.5h15.4v-8.5l-15.4-0.5z"/>
							<path id="&lt;Path&gt;" class="s31" d="m568.2 317h16.6v8.5h-16.6z"/>
							<path id="&lt;Path&gt;" class="s32" d="m584.8 317l-5.5-0.5h-11.9l2 0.5c0 0 9.1 1.2 15.4 0z"/>
						</g>
						<g id="&lt;Group&gt;">
							<path id="&lt;Path&gt;" class="s30" d="m547 325.5h15.4v-8.5l-15.4-0.5z"/>
							<path id="&lt;Path&gt;" class="s31" d="m547.8 317h16.6v8.5h-16.6z"/>
							<path id="&lt;Path&gt;" class="s32" d="m564.4 317l-5.6-0.5h-11.8l1.9 0.5c0 0 9.2 1.2 15.5 0z"/>
						</g>
						<g id="&lt;Group&gt;">
							<path id="&lt;Path&gt;" class="s30" d="m524.6 325.5h15.5v-8.5l-15.5-0.5z"/>
							<path id="&lt;Path&gt;" class="s31" d="m525.5 317h16.6v8.5h-16.6z"/>
							<path id="&lt;Path&gt;" class="s32" d="m542.1 317l-5.6-0.5h-11.9l2 0.5c0 0 9.1 1.2 15.5 0z"/>
						</g>
					</g>
				</g>
				<g id="&lt;Group&gt;">
					<path id="&lt;Path&gt;" class="s28" d="m690.1 356.8l-46.6 20.2-123 3c-32.2 5.7-87 2.1-30.4-7.2l-182-2.6 35.6-14.5z"/>
				</g>
			</g>
		</g>
	</g>
</svg>