<svg version="1.2" xmlns="http://www.w3.org/2000/svg" viewBox="0 0 800 400" width="800" height="400">
	<title>2110</title>
	<defs>
		<linearGradient id="g1" x1="70.1" y1="253.7" x2="70.1" y2="174.3" gradientUnits="userSpaceOnUse">
			<stop offset="0" stop-color="#4a3400"/>
			<stop offset="1" stop-color="#836b02"/>
		</linearGradient>
		<linearGradient id="g2" x1="81.1" y1="130.5" x2="235.5" y2="52.3" gradientUnits="userSpaceOnUse">
			<stop offset="0" stop-color="#4a3400"/>
			<stop offset="1" stop-color="#836b02"/>
		</linearGradient>
		<linearGradient id="g3" x1="-60.6" y1="350" x2="-60.6" y2="143" gradientUnits="userSpaceOnUse">
			<stop offset=".022" stop-color="#b6591b"/>
			<stop offset=".954" stop-color="#8d3936"/>
		</linearGradient>
		<linearGradient id="g4" x1="116.4" y1="207.8" x2="169.8" y2="207.8" gradientUnits="userSpaceOnUse">
			<stop offset=".046" stop-color="#8d3936"/>
			<stop offset=".978" stop-color="#9d4f1b"/>
		</linearGradient>
		<linearGradient id="g5" x1="74.3" y1="251.3" x2="74.3" y2="174.3" gradientUnits="userSpaceOnUse">
			<stop offset="0" stop-color="#949b1d"/>
			<stop offset="1" stop-color="#aea800"/>
		</linearGradient>
		<linearGradient id="g6" x1="88.4" y1="251.7" x2="88.4" y2="246.5" gradientUnits="userSpaceOnUse">
			<stop offset="0" stop-color="#b6b41c"/>
			<stop offset="1" stop-color="#cfd703"/>
		</linearGradient>
		<linearGradient id="g7" x1="44.6" y1="236.8" x2="44.6" y2="222.9" gradientUnits="userSpaceOnUse">
			<stop offset="0" stop-color="#b6b41c"/>
			<stop offset="1" stop-color="#cfd703"/>
		</linearGradient>
		<linearGradient id="g8" x1="88.3" y1="132.7" x2="237.9" y2="57" gradientUnits="userSpaceOnUse">
			<stop offset="0" stop-color="#949b1d"/>
			<stop offset="1" stop-color="#aea800"/>
		</linearGradient>
		<linearGradient id="g9" x1="95.6" y1="149.1" x2="105.7" y2="144.1" gradientUnits="userSpaceOnUse">
			<stop offset="0" stop-color="#b6b41c"/>
			<stop offset="1" stop-color="#cfd703"/>
		</linearGradient>
		<linearGradient id="g10" x1="99.4" y1="84.9" x2="126.5" y2="71.1" gradientUnits="userSpaceOnUse">
			<stop offset="0" stop-color="#b6b41c"/>
			<stop offset="1" stop-color="#cfd703"/>
		</linearGradient>
		<linearGradient id="g11" x1="535" y1="126.7" x2="535" y2="-2" gradientUnits="userSpaceOnUse">
			<stop offset="0" stop-color="#836b02"/>
			<stop offset="1" stop-color="#4a3400"/>
		</linearGradient>
		<linearGradient id="g12" x1="157.9" y1="352" x2="157.9" y2="7.7" gradientUnits="userSpaceOnUse">
			<stop offset=".022" stop-color="#b6591b"/>
			<stop offset=".954" stop-color="#8d3936"/>
		</linearGradient>
		<linearGradient id="g13" x1="537.3" y1="126.9" x2="537.3" y2="-2" gradientUnits="userSpaceOnUse">
			<stop offset="0" stop-color="#949b1d"/>
			<stop offset="1" stop-color="#aea800"/>
		</linearGradient>
		<linearGradient id="g14" x1="370.1" y1="60.5" x2="370.1" y2="23.9" gradientUnits="userSpaceOnUse">
			<stop offset="0" stop-color="#b6b41c"/>
			<stop offset="1" stop-color="#cfd703"/>
		</linearGradient>
		<linearGradient id="g15" x1="405.3" y1="111.4" x2="405.3" y2="104.9" gradientUnits="userSpaceOnUse">
			<stop offset="0" stop-color="#b6b41c"/>
			<stop offset="1" stop-color="#cfd703"/>
		</linearGradient>
		<linearGradient id="g16" x1="761.4" y1="37.2" x2="761.4" y2="17.4" gradientUnits="userSpaceOnUse">
			<stop offset="0" stop-color="#b6b41c"/>
			<stop offset="1" stop-color="#cfd703"/>
		</linearGradient>
		<linearGradient id="g17" x1="728.9" y1="31" x2="728.9" y2="23.9" gradientUnits="userSpaceOnUse">
			<stop offset="0" stop-color="#b6b41c"/>
			<stop offset="1" stop-color="#cfd703"/>
		</linearGradient>
		<linearGradient id="g18" x1="707.8" y1="75.8" x2="707.8" y2="48.6" gradientUnits="userSpaceOnUse">
			<stop offset="0" stop-color="#b6b41c"/>
			<stop offset="1" stop-color="#cfd703"/>
		</linearGradient>
		<linearGradient id="g19" x1="664.1" y1="127.3" x2="664.1" y2="115.8" gradientUnits="userSpaceOnUse">
			<stop offset="0" stop-color="#b6b41c"/>
			<stop offset="1" stop-color="#cfd703"/>
		</linearGradient>
		<linearGradient id="g20" x1="604.6" y1="56.6" x2="604.6" y2="32.1" gradientUnits="userSpaceOnUse">
			<stop offset="0" stop-color="#b6b41c"/>
			<stop offset="1" stop-color="#cfd703"/>
		</linearGradient>
		<linearGradient id="g21" x1="275.7" y1="335" x2="277" y2="520.1" gradientUnits="userSpaceOnUse">
			<stop offset="0" stop-color="#d3bde3"/>
			<stop offset="1" stop-color="#a987cb"/>
		</linearGradient>
		<linearGradient id="g22" x1="386" y1="343.9" x2="386" y2="405.9" gradientUnits="userSpaceOnUse">
			<stop offset="0" stop-color="#d3bde3"/>
			<stop offset="1" stop-color="#a987cb"/>
		</linearGradient>
		<linearGradient id="g23" x1="352.2" y1="400.4" x2="376" y2="439.8" gradientUnits="userSpaceOnUse">
			<stop offset="0" stop-color="#d3bde3"/>
			<stop offset="1" stop-color="#a987cb"/>
		</linearGradient>
		<linearGradient id="g24" x1="213.9" y1="240.3" x2="218.6" y2="421.9" gradientUnits="userSpaceOnUse">
			<stop offset="0" stop-color="#d3bde3"/>
			<stop offset="1" stop-color="#a987cb"/>
		</linearGradient>
		<linearGradient id="g25" x1="392.4" y1="220.7" x2="397.9" y2="436.1" gradientUnits="userSpaceOnUse">
			<stop offset="0" stop-color="#d3bde3"/>
			<stop offset="1" stop-color="#a987cb"/>
		</linearGradient>
		<linearGradient id="g26" x1="602.9" y1="335" x2="604.1" y2="508.8" gradientUnits="userSpaceOnUse">
			<stop offset="0" stop-color="#d3bde3"/>
			<stop offset="1" stop-color="#a987cb"/>
		</linearGradient>
	</defs>
	<style>
		.s0 { fill: url(#g1) } 
		.s1 { fill: url(#g2) } 
		.s2 { fill: url(#g3) } 
		.s3 { fill: url(#g4) } 
		.s4 { opacity: .5;mix-blend-mode: multiply;fill: #795780 } 
		.s5 { fill: url(#g5) } 
		.s6 { opacity: .5;mix-blend-mode: multiply;fill: #a28ca6 } 
		.s7 { fill: #bcbe02 } 
		.s8 { fill: url(#g6) } 
		.s9 { fill: url(#g7) } 
		.s10 { fill: url(#g8) } 
		.s11 { fill: url(#g9) } 
		.s12 { fill: url(#g10) } 
		.s13 { fill: url(#g11) } 
		.s14 { fill: url(#g12) } 
		.s15 { fill: url(#g13) } 
		.s16 { fill: url(#g14) } 
		.s17 { fill: url(#g15) } 
		.s18 { fill: url(#g16) } 
		.s19 { fill: url(#g17) } 
		.s20 { fill: url(#g18) } 
		.s21 { fill: url(#g19) } 
		.s22 { fill: url(#g20) } 
		.s23 { fill: url(#g21) } 
		.s24 { fill: url(#g22) } 
		.s25 { fill: url(#g23) } 
		.s26 { fill: url(#g24) } 
		.s27 { fill: url(#g25) } 
		.s28 { fill: url(#g26) } 
		.s29 { opacity: .5;mix-blend-mode: screen;fill: #b5c4e1 } 
		.s30 { opacity: .5;mix-blend-mode: multiply;fill: #a987cb } 
		.s31 { opacity: .5;mix-blend-mode: multiply;fill: #574179 } 
		.s32 { fill: #ffffff } 
	</style>
	<g id="tree_01">
		<g id="&lt;Clip Group&gt;">
			<g id="&lt;Group&gt;">
				<g id="&lt;Group&gt;">
					<path id="&lt;Path&gt;" class="s0" d="m149.7 185v31.3l-4 15.2v-3.1c-5.6 19.1-15.7 18.9-15.7 18.9l4.7 3.9-19.7 2.5 2-2.5q-1.6 0.1-3.2 0.1c-27 0.4-40.6-12.8-40.6-12.8-0.9-20 8.1-39.7 8.1-39.7l-2.4-0.6-5.7 1.9c14-18.8 45.6-22.7 45.6-22.7l-3.8-3.1c20.2 5 34.7 10.7 34.7 10.7z"/>
					<path id="&lt;Path&gt;" class="s1" d="m260.3 152.9l-60.9 30.9-31.6 10.4 5.9-3.1c-40.4 12.5-45.7 0.9-45.7 0.9l-4.9 9.1-16.2-19.8 6.1-0.2q-1.1-1.8-2.1-3.6c-16.2-30.2 1.7-58.6 1.7-58.6 38.2-20.6 81.7-29.8 81.7-29.8l-0.1-3.4-7.1-4.5c44.6-2.6 70.4 29.2 70.4 29.2l3.8-7.2c1.8 27.8-1 49.7-1 49.7z"/>
					<path id="&lt;Path&gt;" class="s2" d="m232.5 143c0 0-17.7 4.8-22.4 12l-8.5 2.6c0 0-14.9 6-20.6 13.2-5.7 7.2-12.9 21.4-12.9 21.4 0 0 4.3 9.3 10.8 18.6q1.5 2.3 3.2 4.5c2.3 3 4.9 5.9 7.6 8.3l-0.4 10.7c-0.1 0.2-2.4 4.3-5.1 10.2l-0.1 0.1-0.3 0.7q-0.4 0.8-0.7 1.6c-1.6 3.5-3.2 7.5-4.6 11.6h-0.1c-1 3-1.9 6.1-2.6 9.1q-0.3 1.2-0.5 2.4c-0.6 3.1-0.7 7.9-0.5 13.7v0.1q0.1 1 0.1 2.1v0.3c0.4 6.5 1 14.1 1.8 21.6q0.3 2.2 0.5 4.2c0.6 5.1 1.2 10 1.8 14.6l0.3 2.5c0.4 3.2 0.8 6.1 1.2 8.7l0.1 0.4 0.1 1c1 6.6 1.6 10.8 1.6 10.8h-29.8l4.2-19.6 5.9-69.6 0.5-5.5 6.7-8.4 3.4-4.3 3.5-17.1c0 0-4.5-14.9-20-28.9 0 0-2.4-33.7-9.9-53.6h2.5c0 0 6.9 42.7 11.1 47.1 4.2 4.4 20-22.8 20-22.8l21.8-13.6-0.6-10.7h3.6c0 0-1.9 9.7-0.1 10.5 1.8 0.9 18.9-10.5 18.9-10.5z"/>
					<path id="&lt;Path&gt;" class="s3" d="m169.8 246.9c-1.3 6.5-6.9 13.5-7.2 13.9q0 0 0 0l-3.5-8.9c0 0-8-6.9-14.8-9.5-6.7-2.6-27.9-2.3-27.9-2.3l1.4-3.4 25.4 3.7c0 0 2.1-0.6 3.6-7 1.6-6.4-3.6-25.6-3.6-25.6l3.6 1.8c-0.7 11.8 2.1 24.3 2.1 24.3l-2.1 2.9c5.9 12.2 19.3 11.5 19.3 11.5z"/>
					<path id="&lt;Path&gt;" class="s4" d="m232.5 143c0 0-17.7 4.8-22.4 12l-8.5 2.6c0 0-14.9 6-20.6 13.2-5.7 7.2-12.9 21.4-12.9 21.4l-2.7-0.7-5 2.5 2.9 6.7 11.6 7.8 4 2.3 1.9 1.1 1.3 3.4-7.2-4.5 3.9 10.1 5.3 13.4h5.2l-5.1 10.2-0.1 0.1-0.3 0.7-0.7 1.6-4.2-3.8-1.9-12.3-1 8.2-4.6 9.1-0.8 7.7 2.4 3.5 5.4-0.8h0.1l-2.7 9.1-1 16.1v0.1l0.1 2.1v0.3l-5.1-17.5-2-5.6-3.3 15.6 2.6 15.1 5.9 16.8 1-1.9 2.7-0.9 0.5 4.2-1.6-1.4-1.8 2.7 0.3 7.5 4.9 5.8 0.3 2.5-5.5-6.9-3.5-13.5-2.4-7.5-2.4-7.4v19.5l5.9 12.4 9.1 12.1 0.1 0.4 0.1 1-7.6-7.6-10.5-15-2.2-7.9 0.9 15 8.5 22.6 12.5 3.7h-29.8l4.2-19.6 5.9-69.6q0 0 0 0l-3.5-8.9c0 0-8-6.9-14.8-9.5-6.7-2.6-27.9-2.3-27.9-2.3l1.4-3.4 25.4 3.7c0 0 2.1-0.6 3.6-7 1.6-6.4-3.6-25.6-3.6-25.6l3.6 1.8c-0.7 11.8 2.1 24.3 2.1 24.3l-2.1 2.9c5.9 12.2 19.3 11.5 19.3 11.5l3.7-1.4 3.4-4.3 3.5-17.1c0 0-4.5-14.9-20-28.9 0 0-2.4-33.7-9.9-53.6h2.5c0 0 6.9 42.7 11.1 47.1 4.2 4.4 20-22.8 20-22.8l21.8-13.6-0.6-10.7h3.6c0 0-1.9 9.7-0.1 10.5 1.8 0.9 18.9-10.5 18.9-10.5z"/>
					<path id="&lt;Path&gt;" class="s5" d="m149.3 217.8l-0.5-7.4c0 0-23.2 11.2-32 34.2l4.9-1.5-7.9 8.2c-27 0.4-40.6-12.8-40.6-12.8-0.9-19.5 7.7-38.8 8.1-39.7q0 0 0 0l-2.4-0.6-5.7 1.9c14-18.8 45.6-22.7 45.6-22.7l-3.8-3.1c20.2 5 34.7 10.7 34.7 10.7 0.1 0.9 3.7 23-0.4 32.8z"/>
					<path id="&lt;Path&gt;" class="s6" d="m149.3 217.8l-0.5-7.4c0 0-23.2 11.2-32 34.2l4.9-1.5-7.9 8.2c-27 0.4-40.6-12.8-40.6-12.8-0.9-19.5 7.7-38.8 8.1-39.7-0.1 0.7-3.5 17.5 0 27.5l0.3-2c0 0 8 13.7 19.8 16 11.9 2.3 44.7-35.6 47-41.1 2.4-5.5 1.3-14.2 1.3-14.2 0.1 0.9 3.7 23-0.4 32.8z"/>
					<path id="&lt;Path&gt;" class="s7" d="m117.1 181.9c0 0-20-1.1-29.8 3.1 0 0 25.9-2.8 29.8-3.1z"/>
					<path id="&lt;Path&gt;" class="s7" d="m117.1 204.1c0 0 2.3 8.7-8.5 12.4 0 0 8.8-9.6 8.5-12.4z"/>
					<path id="&lt;Path&gt;" class="s7" d="m140.8 185c0 0-1.8-4.8-8.6-8.5 0 0 8.6-0.7 8.6 8.5z"/>
					<path id="&lt;Path&gt;" class="s7" d="m87.3 192.7c0 0-7.6 0.4-14.1 7.4 0 0-1.3-12 14.1-7.4z"/>
					<path id="&lt;Path&gt;" class="s8" d="m97 246.5c0 0-3.8 4.3-15.4 3.1 0 0 11.9 6.2 15.4-3.1z"/>
					<path id="&lt;Path&gt;" class="s9" d="m73.1 222.9c0 0-3.7 11.3 2.2 13.9 0 0-1.4-7-2.2-13.9z"/>
					<path id="&lt;Path&gt;" class="s4" d="m158.6 307.8l2.7 15.9 8.5 22.6 3.3 3.7h-20.6l4.4-21.6z"/>
					<g id="&lt;Group&gt;">
						<path id="&lt;Path&gt;" class="s10" d="m196.3 184.8l14.2-7.8c0 0-35.1-15.3-84.8-2.6l5.7 3.9-20.5-0.8c-16.2-30.2 1.7-58.6 1.7-58.6 37.4-20.1 79.8-29.4 81.6-29.8q0.1 0 0.1 0l-0.1-3.4-7.1-4.5c44.6-2.6 70.4 29.2 70.4 29.2l3.8-7.2c1.8 27.8-1 49.7-1 49.7l-0.1 0.1c-1.6 1-42.3 26.8-63.9 31.8z"/>
						<path id="&lt;Path&gt;" class="s6" d="m196.3 184.8l14.2-7.8c0 0-35.1-15.3-84.8-2.6l5.7 3.9-20.5-0.8c-16.2-30.2 1.7-58.6 1.7-58.6 37.4-20.1 79.8-29.4 81.6-29.8-1.4 0.5-36 13.3-53.4 27.1l4-1.7c0 0-21.9 22.5-19.6 38.2 2.4 15.7 94.9 15.6 106.8 12.8 11.9-2.7 28.3-12.6 28.3-12.6l-0.1 0.1c-1.6 1-42.3 26.8-63.9 31.8z"/>
						<path id="&lt;Path&gt;" class="s7" d="m247.7 113c0 0-9.4-23.7-23.2-30.7 0 0 20.3 26.6 23.2 30.7z"/>
						<path id="&lt;Path&gt;" class="s7" d="m204.6 134.8c0 0-15.7 11.1-29.1 2.7 0 0 23.7 0.4 29.1-2.7z"/>
						<path id="&lt;Path&gt;" class="s7" d="m255.2 142.9c0 0 8.3-6.7 11.6-18.2 0 0 6.3 9.1-11.6 18.2z"/>
						<path id="&lt;Path&gt;" class="s7" d="m209.6 89.8c0 0-5.2-8.1-22.5-8.6 0 0 22.6-13.3 22.5 8.6z"/>
						<path id="&lt;Path&gt;" class="s11" d="m110.6 153.8c0 0-10.5-0.1-15-14.4 0 0-5.2 19.6 15 14.4z"/>
						<path id="&lt;Path&gt;" class="s12" d="m142.9 103.5c0 0-24.1 6.9-25.9 16.2 0 0 12.9-8.5 25.9-16.2z"/>
					</g>
				</g>
				<g id="&lt;Group&gt;">
					<path id="&lt;Path&gt;" class="s13" d="m427.1 122.3c0 0 25.4 9.9 55.3 0h-19.6c0 0 45.4-26.2 69-30.8l-4.4 8.8c0 0 36.4-1.9 74.3-13.4l13 4.6c0 0 18.4 25.7 43.7 28 0 0-8.5-5.9-13.9-9.6 0 0 20.7 0.6 70.7-17.8 50-18.4 77.6-94.1 77.6-94.1h-481.2c0 0 22.4 63.6 55.1 94.7l0.4-8.1c0 0 38.2 29.1 68.6 36z"/>
					<path id="&lt;Path&gt;" class="s14" d="m616.5 45.3c0 0-0.2 0.7-0.5 2-2.2 8.5-10.6 43-10.6 64.7l-5.8 5.9c0 0-5.5-2.4-15 10.2-5.4 7.2-4.6 24-3 37.2 1.3 9.9 3 17.8 3 17.8v16.6c0 0-2.8 5.7-2.6 21v0.2l0.1 2.4v0.3c0.2 6.3 1 14.2 2.5 23.7q2.2 13.3 4.1 23.5l0.9 4.9q0.1 0.3 0.1 0.5v0.1c3.2 16.8 5.3 25.5 5.3 25.5l-2.6 10.3c0 0-12.7 24.2-11.4 38.7l-26.9 0.7-19.6 0.5 11.1-41.4c0 0 18.2-11 23.1-18.3q0.4-0.5 0.7-1 0.3-0.7 0.6-2.2c1.9-10.2 1.4-46.3 0.8-69.4v-0.2c-0.3-11.6-0.6-19.8-0.6-19.8l1.1-10.8c0 0-20.7-30.1-42.8-46.7 0 0-14.3-10.3-36.8-12.6l-30.8-25.6v-3.9c0 0 22.2 20.9 40 27.5 17.9 6.6 28.5 9.5 28.5 9.5l5.1-15.5c0 0 12.6-9.2 9-68.4l4-4.8c0 0-3.8 40.6-0.4 64l-6.5 11.1c0 0-6.1 10.4-0.4 21.8 5.8 11.5 34.4 30.1 34.4 30.1v-31.4c0 0 8.8-53.2 12.2-102.8 0.6-9.7 1.1-19.3 1.2-28.3l8.6-5.2c0 0-2.5 15.2-5.3 34.5-3.8 26.7-8.3 61.4-7.6 75l14.7-7c0 0 10-21.6 13.1-61.8l2.5-1.6z"/>
					<path id="&lt;Compound Path&gt;" fill-rule="evenodd" class="s4" d="m616 47.3c-2.2 8.5-10.6 43-10.6 64.7l-5.8 5.9c0 0-5.5-2.4-15 10.2-5.4 7.2-4.6 24-3 37.2l-5.3 11.2-0.6 7.7-3 5.1 1.3 3.9 6.1 10.4 1.9 17.1v0.2l0.1 2.4v0.3 0.7l-3-17.7-6.4-5.6v8.2l4.1 14.3 3.1 27.1 6 14 2.8 6.2 0.9 4.9 0.1 0.6v-0.1l-9.8-19.6-3.1-19.5v18.6l3.1 34.6 6.7 21.4 4-2.5 4.4-7.4-2.6 10.3c0 0-12.7 24.2-11.4 38.7l-46.5 1.2 11.1-41.4c0 0 20-12.1 23.8-19.3 3.8-7.2 0.8-91.6 0.8-91.6l1.1-10.8c0 0-20.7-30.1-42.8-46.7 0 0-14.3-10.3-36.8-12.6l-30.8-25.6v-3.9c0 0 22.2 20.9 40 27.5 17.9 6.6 28.5 9.5 28.5 9.5l5.1-15.5c0 0 12.6-9.2 9-68.4l4-4.8c0 0-3.8 40.6-0.4 64l-6.5 11.1c0 0-6.1 10.4-0.4 21.8 5.8 11.5 34.4 30.1 34.4 30.1v-31.4c0 0 8.8-53.2 12.2-102.8l4.5 1c-3.8 26.7-8.3 61.4-7.6 75l14.7-7c0 0 10-21.6 13.1-61.8l2.5-1.6zm-46.9 250.3l-5.2 7.1v20.6l8.9 9.7 7.1-7.4v-22.9z"/>
					<path id="&lt;Path&gt;" class="s15" d="m797.2-2q0 0 0 0.1c-2 42.9-38.7 79.6-38.7 79.6l3.8-15.3c-32.6 36-84.7 41.7-84.7 41.7 16.5-3.8 29.5-19.3 29.5-19.3-56.6-31.7-154.9-33.8-154.9-33.8l6-8.1c-21.8 7.4-61.4 40.4-62.6 41.4l4.5-5.2c-35.6 11.5-54 43.5-54 43.5 5.4 4 11.2 4.1 11.2 4.1-22.7 1.5-58.1-6.4-58.1-6.4h24.2c-16.7-8.9-56.3-35.7-56.3-35.7l-0.3 8.1c0 0-27.6-20.2-32.8-30.4-5.1-10.2-22.4-64.3-22.4-64.3z"/>
					<path id="&lt;Path&gt;" class="s4" d="m561 304.6l-7.2 27 0.3 19.9-19.6 0.5 11.1-41.4c0 0 18.2-11 23.1-18.3z"/>
					<path id="&lt;Path&gt;" class="s4" d="m579.9 327.5v-22.9l-10.8-7.1 0.9-8.4c1.9-10.2 1.4-46.3 0.8-69.4v-0.2l2.8 42.4 6.2 27.2 2.3 8.4z"/>
					<path id="&lt;Path&gt;" class="s6" d="m758.5 77.7l3.8-15.3c-32.6 36-84.7 41.7-84.7 41.7 16.5-3.8 29.5-19.3 29.5-19.3-56.6-31.7-154.9-33.8-154.9-33.8l6-8.1c-21.8 7.4-61.4 40.4-62.6 41.4l4.5-5.2c-35.6 11.5-54 43.5-54 43.5 5.4 4 11.2 4.1 11.2 4.1-22.7 1.5-58.1-6.4-58.1-6.4h24.2c-16.7-8.9-56.3-35.7-56.3-35.7l-0.3 8.1c0 0-27.6-20.2-32.8-30.4-5.1-10.2-22.4-64.3-22.4-64.3h83.8l-7.1 13.3 37.3 54.3c0 0 26.8 3.1 45.4 0l-14 4.9-5.2 10.9c0 0 34.5-0.2 72.4-31 38-30.8 21.3-52.4 21.3-52.4h40.8c0 0-22 12.9-25.9 30 0 0 80 28.3 154 25.5l-8.5 3.5c0 0 22 5.4 53.5-5.4 30.5-10.4 37.4-50.9 37.8-53.5-2 42.9-38.7 79.6-38.7 79.6z"/>
					<path id="&lt;Path&gt;" class="s16" d="m415.7 23.9c0 0-27.6 10.6-15.4 36.6 0 0 7.7-24.9 15.4-36.6z"/>
					<path id="&lt;Path&gt;" class="s17" d="m415.7 104.9c0 0-2.9 6.4-18.5 6.5z"/>
					<path id="&lt;Path&gt;" class="s18" d="m752.2 36.7c0 0 17.8-3.1 31.1-19.3 0 0-2.7 23.5-31.1 19.3z"/>
					<path id="&lt;Path&gt;" class="s19" d="m747.6 23.9c0 0-10 10.5-36 5.9 0 0 24.5-1.1 36-5.9z"/>
					<path id="&lt;Path&gt;" class="s20" d="m786.7 48.6c0 0 4.7 15.3-3.4 27.2z"/>
					<path id="&lt;Path&gt;" class="s21" d="m686.6 115.8c0 0-13.7 14.5-41.9 10.9 0 0 22.4-3.2 41.9-10.9z"/>
					<path id="&lt;Path&gt;" class="s22" d="m592.8 32.1c0 0-4.3 17.9 39 24.5 0 0-13.7-6.7-39-24.5z"/>
				</g>
			</g>
		</g>
	</g>
	<g id="road_01">
		<g id="&lt;Clip Group&gt;">
			<g id="&lt;Group&gt;">
				<g id="&lt;Group&gt;">
					<path id="&lt;Path&gt;" class="s23" d="m337.2 366.1c-4.4 2.1-17.2 8-24.7 10.5-24.6-1-60.9-2.3-101.2-3.8 4.7-3.7 17.8-13.8 24.7-16.2 30.5 1.2 62.1 2.4 91.5 3.6 3.5 1.1 6.8 3.4 9.7 5.9z"/>
					<path id="&lt;Compound Path&gt;" fill-rule="evenodd" class="s24" d="m869.1 345.3l-5.9 25.1-1.1 4.8-6.3 26.8-237.6-0.4h-2.5l-85-0.1-4.6-0.1-74.9-0.1h-8.3l-543.4-1 52.7-34.2 3.9-2.6-28.2-13.7 101.8 2 64.4-0.4 17.5-0.2c33 1.2 122.7 4.4 195.4 6.9 5-1.4 11.4-5 14.7-7h4.4l-16.4 7.1c52.7 1.8 95.9 3.2 100.9 3.2 8.2 0 43.6-5.8 70.4-10.3h362.2q4.7-1 8.3-1.7v-0.9h4.6 1.6l3.9-1.1zm-555.1 31.4c4.9 0.2 9.3 0.4 13.2 0.6 5.1 0.2 11.9 0.4 20 0.7-0.7-1.1-1.9-2.8-3.3-4.6-1.4-1.8-3.1-3.8-5-5.7-1.9 0.6-19.8 6.4-24.9 9zm328.2 11.4l8-13.4c-18.6 0.4-37.1 0.1-55-1q-2.4-0.2-4.7-0.3c-12.3-0.7-24.6-1.4-36.6-2.1l18.1 14.5c14.7 0.5 29.4 0.9 44 1.4q0.6 0 1.2 0.1 12.6 0.4 25 0.8zm-406.2-31.4c-6.9 2.3-20 12.4-24.7 16.1 40.3 1.5 76.6 2.9 101.2 3.8 7.5-2.5 20.3-8.4 24.7-10.5-2.9-2.5-6.2-4.7-9.7-5.9-29.4-1.2-61-2.4-91.5-3.5z"/>
					<path id="&lt;Path&gt;" class="s25" d="m347.2 378c-8.1-0.3-14.9-0.5-20-0.8-3.9-0.1-8.3-0.3-13.2-0.5 5.1-2.6 23-8.4 24.9-9q0 0 0 0c3.9 3.8 6.8 8 8.3 10.3z"/>
					<path id="&lt;Path&gt;" class="s26" d="m321.7 351.1c-3.3 2-9.7 5.6-14.7 7-72.7-2.5-162.4-5.7-195.4-6.9l25.3-0.1z"/>
					<path id="&lt;Path&gt;" class="s27" d="m481 351.1c-26.8 4.5-62.2 10.3-70.4 10.3-5 0-48.2-1.4-100.9-3.2l16.4-7.1z"/>
					<path id="&lt;Path&gt;" class="s28" d="m650.2 374.7l-8 13.4q-12.4-0.4-25-0.8-0.6-0.1-1.2-0.1c-14.6-0.5-29.3-1-44-1.4l-18.1-14.5c12 0.7 24.3 1.4 36.6 2.1q2.4 0.1 4.7 0.2c17.9 1.2 36.4 1.4 55 1.1z"/>
					<g id="&lt;Group&gt;" style="opacity: .6">
						<path id="&lt;Path&gt;" class="s29" d="m131.8 366.4c-14.2 0-25.7-0.9-25.7-2.1 0-1.2 11.5-2.1 25.7-2.1 14.2 0 25.7 0.9 25.7 2.1 0 1.2-11.5 2.1-25.7 2.1z"/>
						<path id="&lt;Path&gt;" class="s29" d="m0.2 376.9c-14.9 0-27-1-27-2.2 0-1.3 12.1-2.3 27-2.3 15 0 27.1 1 27.1 2.3 0 1.2-12.1 2.2-27.1 2.2z"/>
						<path id="&lt;Path&gt;" class="s29" d="m172.7 362.8c0 0.3-2.3 0.5-5.2 0.5-2.8 0-5.2-0.2-5.2-0.4 0-0.3 2.4-0.5 5.2-0.5 2.9 0 5.2 0.2 5.2 0.4z"/>
						<path id="&lt;Path&gt;" class="s29" d="m128.4 360.2c0 0.2-1.2 0.3-2.6 0.3-1.5 0-2.6-0.1-2.6-0.2 0-0.2 1.1-0.3 2.6-0.3 1.4 0 2.6 0.1 2.6 0.2z"/>
						<path id="&lt;Path&gt;" class="s29" d="m182.2 360.9c0 0.1-1.2 0.2-2.6 0.2-1.4 0-2.6-0.1-2.6-0.2 0-0.1 1.2-0.2 2.6-0.2 1.4 0 2.6 0.1 2.6 0.2z"/>
						<path id="&lt;Path&gt;" class="s29" d="m6 361c-8.4 0-15.3-0.6-15.3-1.3 0-0.7 6.9-1.2 15.3-1.2 8.4 0 15.2 0.5 15.2 1.2 0 0.7-6.8 1.3-15.2 1.3z"/>
						<path id="&lt;Path&gt;" class="s29" d="m30.3 358.9c0 0.1-1.4 0.2-3.1 0.2-1.7 0-3.1-0.1-3.1-0.2 0-0.1 1.4-0.3 3.1-0.3 1.7 0 3.1 0.1 3.1 0.3z"/>
						<path id="&lt;Path&gt;" class="s29" d="m4 357.3c0 0.1-0.7 0.2-1.6 0.2-0.8 0-1.5-0.1-1.5-0.2 0 0 0.7-0.1 1.5-0.1 0.9 0 1.6 0.1 1.6 0.1z"/>
						<path id="&lt;Path&gt;" class="s29" d="m35.9 357.7c0 0.1-0.7 0.1-1.5 0.1-0.9 0-1.6 0-1.6-0.1 0-0.1 0.7-0.1 1.6-0.1 0.8 0 1.5 0 1.5 0.1z"/>
						<path id="&lt;Path&gt;" class="s29" d="m431.5 369.8c-15.3 0-27.6-1-27.6-2.3 0-1.3 12.3-2.3 27.6-2.3 15.2 0 27.5 1 27.5 2.3 0 1.3-12.3 2.3-27.5 2.3z"/>
						<path id="&lt;Path&gt;" class="s29" d="m462.7 372.7c-5.4 0-9.8-0.4-9.8-0.8 0-0.5 4.4-0.8 9.8-0.8 5.4 0 9.8 0.3 9.8 0.8 0 0.4-4.4 0.8-9.8 0.8z"/>
						<path id="&lt;Path&gt;" class="s29" d="m466.3 366.2c0 0.1-1.4 0.2-3 0.2-1.7 0-3.1-0.1-3.1-0.2 0-0.1 1.4-0.3 3.1-0.3 1.6 0 3 0.1 3 0.3z"/>
						<path id="&lt;Path&gt;" class="s29" d="m666.2 360.5c-15.2 0-27.5-0.7-27.5-1.5 0-0.9 12.3-1.6 27.5-1.6 15.3 0 27.6 0.7 27.6 1.6 0 0.8-12.3 1.5-27.6 1.5z"/>
						<path id="&lt;Path&gt;" class="s29" d="m697.5 362.4c-5.5 0-9.8-0.2-9.8-0.5 0-0.3 4.3-0.6 9.8-0.6 5.4 0 9.7 0.3 9.7 0.6 0 0.3-4.3 0.5-9.7 0.5z"/>
						<path id="&lt;Path&gt;" class="s29" d="m648.5 365.2c-5.4 0-9.7-0.5-9.7-1 0-0.5 4.3-1 9.7-1 5.5 0 9.8 0.5 9.8 1 0 0.5-4.3 1-9.8 1z"/>
						<path id="&lt;Path&gt;" class="s29" d="m622.8 359.4c0-0.2 1.4-0.3 3.1-0.4 1.7 0 3 0.2 3 0.3 0 0.2-1.3 0.4-3 0.4-1.7 0-3.1-0.2-3.1-0.3z"/>
						<path id="&lt;Path&gt;" class="s29" d="m630.2 360.9c0-0.1 0.5-0.2 1.2-0.2 0.7 0 1.2 0.1 1.2 0.2 0 0-0.5 0.1-1.2 0.1-0.7 0-1.2-0.1-1.2-0.1z"/>
						<path id="&lt;Path&gt;" class="s29" d="m616.7 361.8c0-0.1 0.6-0.2 1.2-0.2 0.7 0 1.3 0.1 1.3 0.2 0 0-0.6 0.1-1.3 0.1-0.6 0-1.2-0.1-1.2-0.1z"/>
						<path id="&lt;Path&gt;" class="s29" d="m640 368.6c0-0.1 1.1-0.2 2.5-0.2 1.3 0 2.4 0.1 2.4 0.2 0 0.1-1.1 0.3-2.4 0.3-1.4 0-2.5-0.1-2.5-0.3z"/>
						<path id="&lt;Path&gt;" class="s29" d="m662 365c0-0.1 0.5-0.1 1.2-0.1 0.7 0 1.2 0 1.2 0.1 0 0.1-0.5 0.1-1.2 0.1-0.6 0-1.2 0-1.2-0.1z"/>
						<path id="&lt;Path&gt;" class="s29" d="m664.5 366.8c0-0.1 1.1-0.2 2.4-0.2 1.4 0 2.5 0.1 2.5 0.2 0 0.1-1.1 0.3-2.5 0.3-1.3 0-2.4-0.1-2.4-0.3z"/>
						<path id="&lt;Path&gt;" class="s29" d="m532.3 354.5c-5.5 0-9.8-0.4-9.8-0.9 0-0.6 4.3-1 9.8-1 5.4 0 9.7 0.4 9.7 1 0 0.5-4.3 0.9-9.7 0.9z"/>
						<path id="&lt;Path&gt;" class="s29" d="m523.7 358c0-0.1 1.1-0.3 2.5-0.3 1.3 0 2.4 0.1 2.4 0.3 0 0.1-1.1 0.2-2.4 0.2-1.4 0-2.5-0.1-2.5-0.2z"/>
						<path id="&lt;Path&gt;" class="s29" d="m545.7 354.4c0-0.1 0.6-0.2 1.2-0.2 0.7 0 1.2 0.1 1.2 0.2 0 0-0.5 0.1-1.2 0.1-0.6 0-1.2-0.1-1.2-0.1z"/>
						<path id="&lt;Path&gt;" class="s29" d="m548.2 356.2c0-0.1 1.1-0.3 2.4-0.3 1.4 0 2.5 0.1 2.5 0.3 0 0.1-1.1 0.2-2.5 0.2-1.3 0-2.4-0.1-2.4-0.2z"/>
						<path id="&lt;Path&gt;" class="s29" d="m510.2 358.2c-2.9 0-5.2-0.2-5.2-0.5 0-0.3 2.3-0.5 5.2-0.5 2.8 0 5.1 0.2 5.1 0.5 0 0.3-2.3 0.5-5.1 0.5z"/>
						<path id="&lt;Path&gt;" class="s29" d="m514.6 355.4c0 0-0.5 0.1-1.2 0.1-0.7 0-1.3-0.1-1.3-0.1 0-0.1 0.6-0.2 1.3-0.2 0.7 0 1.2 0.1 1.2 0.2z"/>
						<path id="&lt;Path&gt;" class="s29" d="m216.5 379.8c-3.1 0-5.6-0.2-5.6-0.6 0-0.3 2.5-0.5 5.6-0.5 3.1 0 5.6 0.2 5.6 0.5 0 0.4-2.5 0.6-5.6 0.6z"/>
						<path id="&lt;Path&gt;" class="s29" d="m361.6 393.1c-5.7 0-10.3-0.4-10.3-1 0-0.6 4.6-1 10.3-1 5.7 0 10.3 0.4 10.3 1 0 0.6-4.6 1-10.3 1z"/>
						<path id="&lt;Path&gt;" class="s29" d="m378.3 396.6c0 0.2-1.9 0.4-4.2 0.4-2.4 0.1-4.3-0.1-4.3-0.4 0-0.2 1.9-0.4 4.3-0.4 2.3 0 4.2 0.2 4.2 0.4z"/>
						<path id="&lt;Path&gt;" class="s29" d="m402.8 383.9c0 0.2-1.1 0.3-2.6 0.3-1.4 0-2.5-0.1-2.5-0.3 0-0.1 1.1-0.2 2.5-0.2 1.5 0 2.6 0.1 2.6 0.2z"/>
						<path id="&lt;Path&gt;" class="s29" d="m324.2 385.7c0-0.1 0.8-0.2 1.9-0.2 1.1 0 2 0.1 2 0.2 0 0.1-0.9 0.2-2 0.2-1 0-1.9-0.1-1.9-0.2z"/>
						<path id="&lt;Path&gt;" class="s29" d="m332.1 389.1c-2.2 0-3.9-0.2-3.9-0.4 0-0.3 1.7-0.4 3.9-0.4 2.2 0 4 0.1 4 0.4 0 0.2-1.8 0.4-4 0.4z"/>
						<path id="&lt;Path&gt;" class="s29" d="m273.7 387.4c0 0.1-0.9 0.2-2.1 0.2-1.1 0-2.1-0.1-2.1-0.2 0-0.2 1-0.2 2.1-0.2 1.2-0.1 2.1 0 2.1 0.2z"/>
						<path id="&lt;Path&gt;" class="s29" d="m710.3 381.9c-9.6 0-17.4-0.4-17.4-1 0-0.5 7.8-1 17.4-1 9.6 0 17.4 0.5 17.4 1 0 0.6-7.8 1-17.4 1z"/>
						<path id="&lt;Path&gt;" class="s29" d="m734.3 381.9c0 0 0.9-0.1 2.1-0.1 1.2 0 2.2 0.1 2.2 0.1 0 0.1-1 0.2-2.2 0.2-1.2-0.1-2.1-0.1-2.1-0.2z"/>
						<path id="&lt;Path&gt;" class="s29" d="m743 384.1c-2.4 0-4.3-0.2-4.3-0.3 0-0.1 1.9-0.2 4.3-0.2 2.4 0 4.4 0.1 4.4 0.2 0 0.1-2 0.3-4.4 0.3z"/>
						<path id="&lt;Path&gt;" class="s29" d="m671.2 385.2c-5.1 0-9.1-0.2-9.1-0.5 0-0.3 4-0.5 9.1-0.5 5 0 9.1 0.2 9.1 0.5 0 0.3-4.1 0.5-9.1 0.5z"/>
						<path id="&lt;Path&gt;" class="s29" d="m679.1 382.4c0 0.1-1 0.2-2.3 0.1-1.3 0-2.3 0-2.3-0.1 0-0.1 1-0.1 2.3-0.1 1.2 0 2.3 0.1 2.3 0.1z"/>
						<path id="&lt;Path&gt;" class="s29" d="m845.6 376.1c-14.5 0-26.1-1.4-26.1-3.2 0-1.7 11.6-3.2 26.1-3.2 14.4 0 26.1 1.5 26.1 3.2 0 1.8-11.7 3.2-26.1 3.2z"/>
						<path id="&lt;Path&gt;" class="s29" d="m884.7 375.7c-1.8 0-3.3-0.2-3.3-0.4 0-0.2 1.5-0.4 3.3-0.4 1.8 0 3.2 0.2 3.2 0.4 0 0.2-1.4 0.4-3.2 0.4z"/>
						<path id="&lt;Path&gt;" class="s29" d="m894.5 381.9c-3.6 0-6.5-0.3-6.5-0.8 0-0.4 2.9-0.8 6.5-0.8 3.6 0 6.5 0.4 6.5 0.8 0 0.5-2.9 0.8-6.5 0.8z"/>
						<path id="&lt;Path&gt;" class="s29" d="m786.5 388.1c-7.5 0-13.6-0.7-13.6-1.7 0-0.9 6.1-1.6 13.6-1.6 7.6 0 13.7 0.7 13.7 1.6 0 1-6.1 1.7-13.7 1.7z"/>
						<path id="&lt;Path&gt;" class="s29" d="m798.5 378.9c0 0.3-1.5 0.5-3.4 0.5-1.9 0-3.4-0.2-3.4-0.4 0-0.3 1.5-0.5 3.4-0.5 1.9 0 3.4 0.2 3.4 0.4z"/>
						<path id="&lt;Path&gt;" class="s29" d="m503.1 357.2c0 0.1-0.3 0.1-0.6 0.1-0.4 0-0.7 0-0.7 0 0-0.1 0.3-0.1 0.7-0.1 0.3 0 0.6 0 0.6 0z"/>
						<path id="&lt;Path&gt;" class="s29" d="m501.8 356.3c0 0.1-0.5 0.1-1.3 0.1-0.7 0-1.2 0-1.2-0.1 0-0.1 0.5-0.1 1.2-0.1 0.8 0 1.3 0 1.3 0.1z"/>
						<path id="&lt;Path&gt;" class="s29" d="m701.1 358c0 0.1-1.4 0.2-3.1 0.2-1.7 0-3-0.1-3-0.2 0 0 1.3-0.1 3-0.1 1.7 0 3.1 0 3.1 0.1z"/>
						<path id="&lt;Path&gt;" class="s29" d="m526.9 367.4c-5.8 0-10.4-0.4-10.4-0.9 0-0.4 4.6-0.8 10.4-0.8 5.7 0 10.4 0.4 10.4 0.8 0 0.5-4.7 0.9-10.4 0.9z"/>
					</g>
				</g>
				<g id="&lt;Group&gt;">
					<path id="&lt;Path&gt;" class="s30" d="m253.9 376.3q-0.1 0 0 0z"/>
					<path id="&lt;Path&gt;" class="s31" d="m845.9 394.7l-17.1 1.3-58.6-2-8.3-0.3-137.7-4.7q0.2 0 0.2 0l-6.2 12.6-1.3 2.8-3.4-0.1c0 0 0.9-1.1 2.2-2.7 2.7-3.6 6.6-9.9 3.9-12.8l-103.7-3.5c1.8 3 6.6 10.1 14.8 16.2 3.2 2.3 6.8 4.4 11 6.1 18.5 7.5-10.6 0.2-10.6 0.2l-5-6.4-12.7-16.1 0.1-0.1-105.4-3.6-4.5-0.1-23.7-0.9q0 0 0 0h-1.1-0.1l-28.8-1h-1.7l-35.7-1.3h-1.7l-55.3-1.9-1.6-0.1q0 0 0 0 0 0 0 0l-141.5-4.8-4.8-0.1-10.6-0.4-83.4-2.8-61.4-2.1-10.4-0.4 8.5-2.4c0 0 2 0.1 5.8 0.2 13.8 0.5 50.9 1.8 97 3.5 9.3 0.3 18.9 0.7 28.7 1 40.3 1.5 84.7 3.1 125.4 4.6q2 0.1 4.1 0.2c40.3 1.5 76.6 2.8 101.2 3.8q0.7 0.1 1.5 0.1c4.9 0.2 9.3 0.4 13.2 0.5 5.1 0.3 11.9 0.5 20 0.8q0.7 0.1 1.4 0.1c44.8 1.7 129.8 4.6 216.9 7.4q3.3 0.2 6.5 0.3c14.7 0.4 29.4 0.9 44 1.4q0.6 0 1.2 0.1 12.6 0.4 25 0.8 1.6 0 3.2 0.1c42.3 1.4 82.2 2.7 115.2 3.7q3.5 0.2 6.9 0.3c47.2 1.5 78.4 2.5 78.4 2.5z"/>
					<path id="&lt;Compound Path&gt;" fill-rule="evenodd" class="s31" d="m770.2 394l-8.3-0.3-1.3-1.8-17.7-23.1-0.1-0.5c-28.6 3.2-59.8 5.6-90.8 6.3q-0.9 0-1.8 0.1c-18.6 0.3-37.1 0.1-55-1.1q-2.3-0.1-4.7-0.2c-12.3-0.7-24.6-1.4-36.6-2.1q-1.4-0.1-2.9-0.2c-15.6-0.9-30.7-1.7-45.1-2.5-14.3-0.8-28-1.6-40.5-2.2q-2.5-0.2-5-0.3c-18.3-1-34.2-1.8-46.3-2.3-21.5-1-49.8-2.1-80.8-3.4l4.9 5.3 0.7 0.8 9.7 11.6 1.3 1.5h-1.7q-0.3-0.5-1-1.6c-0.7-1.1-1.8-2.8-3.3-4.6-1.4-1.8-3.1-3.8-5-5.7-1.9 0.6-19.8 6.4-24.9 9-1.1 0.5-1.6 0.9-1.3 1.1 0.4 0.4 0.3 0.5-0.2 0.5-0.4 0.1-1 0.1-1.7 0-1.5-0.1-3.2-0.4-3.2-0.4 0.9-0.1 2.7-0.5 4.9-1.3 7.6-2.5 20.3-8.4 24.7-10.5-2.9-2.5-6.2-4.8-9.7-5.9-29.4-1.2-61-2.4-91.5-3.6q-2.8-0.1-5.7-0.2c-58.3-2.2-111.6-4.1-136.2-5l17.5-0.2c33 1.2 122.7 4.4 195.4 6.9q1.4 0.1 2.7 0.1c52.7 1.8 95.9 3.2 100.9 3.2 8.2 0 43.6-5.8 70.4-10.3h11.4c-7 0.9-14.6 2-22.1 3 1.1 1.7 22.2 12.9 22.2 12.9h-1.3c29 1.7 64.3 3.7 101.3 5.8q2.1 0.1 4.2 0.2c47.9 2.7 100.4-1 145.9-6.3q1.6-0.2 3.1-0.4c41.7-5 77.2-11.3 97.5-15.2q4.7-1 8.3-1.7 2.7-0.5 4.6-0.9c3.5-0.7 5.4-1.2 5.4-1.2l0.1 0.1 6.6 1.3c0 0-53.3 11.5-122.1 19.2q0.1 0.5 0.2 1c2.2 9 15.1 18.9 21.2 23.3 1.2 0.8 2.1 1.4 2.7 1.8zm-281.3-27.1c-1.6-1.2-13.7-10.3-20.6-12.5-26.4 3.8-51.6 7.6-49.1 8.2 1.3 0.3 28.9 2 69.7 4.3z"/>
					<path id="&lt;Path&gt;" class="s31" d="m156.9 397c13.6-0.1-53.1-27.2-53.1-27.2h5.1c0 0 54.8 27.2 61.6 28.3 6.9 1.2-13.6-1.1-13.6-1.1z"/>
					<path id="&lt;Path&gt;" class="s30" d="m229.9 356.2c0 0 5.5 0 8.4 0q-1 0-2.3 0.4c-6.9 2.4-20 12.5-24.7 16.2-1.1 0.8-1.8 1.3-1.8 1.3l-5.1 0.1c0 0 1.1-0.6 2.8-1.6 7-4 24.8-14.3 23.1-16.2q-0.1-0.1-0.4-0.2z"/>
					<path id="&lt;Path&gt;" class="s31" d="m252.2 376.4c5.1 1.1 13.8 20.2 13.8 20.2l3.4-0.1c0 0-15.5-20.2-13.8-20.2 1.7 0-3.4 0.1-3.4 0.1z"/>
					<path id="&lt;Path&gt;" class="s31" d="m327.4 397.5l45.9-16.9h6.8c0 0-32.3 6.1-35.7 14.4-3.3 8.4-17 2.5-17 2.5z"/>
					<path id="&lt;Path&gt;" class="s31" d="m400.6 380.5c6.8 1.2 44.1 21.8 44.1 21.8l8.5-0.1-47.5-21.7z"/>
					<path id="&lt;Path&gt;" class="s30" d="m647.6 351.1h4.6l-55.5 21.9-1.5 0.6q-2.3-0.1-4.7-0.2 0.9-0.3 2-0.6c7.2-2.3 21.3-7.9 34.4-13.2q0 0 0 0 0.6-0.2 1.2-0.5c7.5-3 14.5-6 19.5-8z"/>
					<path id="&lt;Path&gt;" class="s30" d="m573.3 386.8l-6.8-0.1c0 0-0.4-0.5-1-1.2-2.7-3.2-10.9-12.7-14.5-14.4q-0.6-0.3-0.9-0.3l3.4 0.1 0.4 0.4 18.1 14.5z"/>
					<path id="&lt;Path&gt;" class="s30" d="m326.1 351.1l-16.4 7.1-1.3 0.6-5-0.1c1.1 0 2.3-0.2 3.6-0.6 5-1.4 11.4-5 14.7-7z"/>
					<path id="&lt;Path&gt;" class="s30" d="m652.3 374.1l-0.3 0.5-6.6 13.6-0.6 1.2h-3.4l0.8-1.3 8-13.4 0.4-0.6z"/>
				</g>
				<path id="&lt;Path&gt;" class="s32" d="m728 361.3h5.1-0.1-5.1q0.1 0 0.1 0z"/>
				<path id="&lt;Path&gt;" class="s32" d="m851.5 349.4v1.7h-8.3q4.7-1 8.3-1.7z"/>
				<path id="&lt;Path&gt;" class="s31" d="m13.6 368.2l62.2-16.1h3.4l-51.3 14.5z"/>
				<path id="&lt;Path&gt;" class="s31" d="m58.2 368.2l-33.9 32.3h11.8c0 0 16.8-32.2 25.6-32.3 8.9-0.2-3.5 0-3.5 0z"/>
			</g>
		</g>
	</g>
</svg>