<svg version="1.2" xmlns="http://www.w3.org/2000/svg" viewBox="0 0 800 400" width="800" height="400">
	<title>2110</title>
	<defs>
		<radialGradient id="g1" cx="334.3" cy="244.2" r="2.4" gradientUnits="userSpaceOnUse">
			<stop offset=".022" stop-color="#fd9b77"/>
			<stop offset="1" stop-color="#000000"/>
		</radialGradient>
		<radialGradient id="g2" cx="325" cy="186.7" r="2.4" gradientUnits="userSpaceOnUse">
			<stop offset=".022" stop-color="#fd9b77"/>
			<stop offset="1" stop-color="#000000"/>
		</radialGradient>
		<radialGradient id="g3" cx="263.9" cy="254.1" r="2.4" gradientUnits="userSpaceOnUse">
			<stop offset=".022" stop-color="#fd9b77"/>
			<stop offset="1" stop-color="#000000"/>
		</radialGradient>
		<radialGradient id="g4" cx="299.3" cy="203.7" r=".9" gradientUnits="userSpaceOnUse">
			<stop offset=".022" stop-color="#fd9b77"/>
			<stop offset="1" stop-color="#000000"/>
		</radialGradient>
		<radialGradient id="g5" cx="344.7" cy="161.8" r="1.1" gradientUnits="userSpaceOnUse">
			<stop offset=".017" stop-color="#fd7500"/>
			<stop offset="1" stop-color="#000000"/>
		</radialGradient>
		<radialGradient id="g6" cx="318.6" cy="185.2" r="1.1" gradientUnits="userSpaceOnUse">
			<stop offset=".017" stop-color="#fd7500"/>
			<stop offset="1" stop-color="#000000"/>
		</radialGradient>
		<radialGradient id="g7" cx="256.4" cy="243.6" r="1.1" gradientUnits="userSpaceOnUse">
			<stop offset=".017" stop-color="#fd7500"/>
			<stop offset="1" stop-color="#000000"/>
		</radialGradient>
		<radialGradient id="g8" cx="325.1" cy="256" r="1.1" gradientUnits="userSpaceOnUse">
			<stop offset=".017" stop-color="#fd7500"/>
			<stop offset="1" stop-color="#000000"/>
		</radialGradient>
		<radialGradient id="g9" cx="381.4" cy="151.2" r="1.1" gradientUnits="userSpaceOnUse">
			<stop offset=".017" stop-color="#fd7500"/>
			<stop offset="1" stop-color="#000000"/>
		</radialGradient>
		<radialGradient id="g10" cx="314.4" cy="255.2" r="1.1" gradientUnits="userSpaceOnUse">
			<stop offset=".017" stop-color="#fd7500"/>
			<stop offset="1" stop-color="#000000"/>
		</radialGradient>
		<radialGradient id="g11" cx="348" cy="153.6" r="8" gradientUnits="userSpaceOnUse">
			<stop offset=".028" stop-color="#fc5400"/>
			<stop offset="1" stop-color="#000000"/>
		</radialGradient>
		<radialGradient id="g12" cx="270.3" cy="259.8" r="17" gradientUnits="userSpaceOnUse">
			<stop offset=".022" stop-color="#4c427c"/>
			<stop offset="1" stop-color="#000000"/>
		</radialGradient>
		<radialGradient id="g13" cx="335.3" cy="206.2" r="17" gradientUnits="userSpaceOnUse">
			<stop offset=".022" stop-color="#4c427c"/>
			<stop offset="1" stop-color="#000000"/>
		</radialGradient>
		<radialGradient id="g14" cx="282.2" cy="193.3" r="5.2" gradientUnits="userSpaceOnUse">
			<stop offset=".028" stop-color="#fc5400"/>
			<stop offset="1" stop-color="#000000"/>
		</radialGradient>
		<radialGradient id="g15" cx="302.6" cy="182.6" r="2.7" gradientUnits="userSpaceOnUse">
			<stop offset=".028" stop-color="#fc5400"/>
			<stop offset="1" stop-color="#000000"/>
		</radialGradient>
		<radialGradient id="g16" cx="311.6" cy="316.2" r="2.4" gradientUnits="userSpaceOnUse">
			<stop offset=".022" stop-color="#fd9b77"/>
			<stop offset="1" stop-color="#000000"/>
		</radialGradient>
		<radialGradient id="g17" cx="375.2" cy="264.5" r="2.4" gradientUnits="userSpaceOnUse">
			<stop offset=".022" stop-color="#fd9b77"/>
			<stop offset="1" stop-color="#000000"/>
		</radialGradient>
		<radialGradient id="g18" cx="209.7" cy="311.1" r="2.4" gradientUnits="userSpaceOnUse">
			<stop offset=".022" stop-color="#fd9b77"/>
			<stop offset="1" stop-color="#000000"/>
		</radialGradient>
		<radialGradient id="g19" cx="197.4" cy="329.1" r="3.9" gradientUnits="userSpaceOnUse">
			<stop offset=".022" stop-color="#fd9b77"/>
			<stop offset="1" stop-color="#000000"/>
		</radialGradient>
		<radialGradient id="g20" cx="294.1" cy="341.6" r=".9" gradientUnits="userSpaceOnUse">
			<stop offset=".022" stop-color="#fd9b77"/>
			<stop offset="1" stop-color="#000000"/>
		</radialGradient>
		<radialGradient id="g21" cx="305.1" cy="317.2" r="1.1" gradientUnits="userSpaceOnUse">
			<stop offset=".017" stop-color="#fd7500"/>
			<stop offset="1" stop-color="#000000"/>
		</radialGradient>
		<radialGradient id="g22" cx="274.4" cy="338.3" r="5.2" gradientUnits="userSpaceOnUse">
			<stop offset=".028" stop-color="#fc5400"/>
			<stop offset="1" stop-color="#000000"/>
		</radialGradient>
		<radialGradient id="g23" cx="289.2" cy="320.8" r="2.7" gradientUnits="userSpaceOnUse">
			<stop offset=".028" stop-color="#fc5400"/>
			<stop offset="1" stop-color="#000000"/>
		</radialGradient>
		<radialGradient id="g24" cx="717.9" cy="215" r="13.1" gradientUnits="userSpaceOnUse">
			<stop offset=".022" stop-color="#ad5500"/>
			<stop offset="1" stop-color="#000000"/>
		</radialGradient>
		<radialGradient id="g25" cx="630" cy="314.3" r="4.7" gradientUnits="userSpaceOnUse">
			<stop offset=".022" stop-color="#fd9b77"/>
			<stop offset="1" stop-color="#000000"/>
		</radialGradient>
		<radialGradient id="g26" cx="673.5" cy="287.3" r="23.8" gradientUnits="userSpaceOnUse">
			<stop offset=".022" stop-color="#ad5500"/>
			<stop offset="1" stop-color="#000000"/>
		</radialGradient>
		<radialGradient id="g27" cx="689.1" cy="183.7" r="6" gradientUnits="userSpaceOnUse">
			<stop offset=".017" stop-color="#fd7500"/>
			<stop offset="1" stop-color="#000000"/>
		</radialGradient>
		<radialGradient id="g28" cx="524.2" cy="296.8" r="27.7" gradientUnits="userSpaceOnUse">
			<stop offset=".028" stop-color="#fc5400"/>
			<stop offset="1" stop-color="#000000"/>
		</radialGradient>
		<radialGradient id="g29" cx="604.1" cy="202.7" r="14.5" gradientUnits="userSpaceOnUse">
			<stop offset=".028" stop-color="#fc5400"/>
			<stop offset="1" stop-color="#000000"/>
		</radialGradient>
		<radialGradient id="g30" cx="314.7" cy="269.5" r="2.7" gradientUnits="userSpaceOnUse">
			<stop offset=".028" stop-color="#fc5400"/>
			<stop offset="1" stop-color="#000000"/>
		</radialGradient>
		<radialGradient id="g31" cx="225.5" cy="258.4" r="2.7" gradientUnits="userSpaceOnUse">
			<stop offset=".028" stop-color="#fc5400"/>
			<stop offset="1" stop-color="#000000"/>
		</radialGradient>
		<linearGradient id="g32" x1="328.7" y1="412.1" x2="328.7" y2="121.2" gradientUnits="userSpaceOnUse">
			<stop offset=".464" stop-color="#dbffff"/>
			<stop offset="1" stop-color="#6e86fd"/>
		</linearGradient>
	</defs>
	<style>
		.s0 { mix-blend-mode: screen;fill: url(#g1) } 
		.s1 { mix-blend-mode: screen;fill: url(#g2) } 
		.s2 { mix-blend-mode: screen;fill: url(#g3) } 
		.s3 { mix-blend-mode: screen;fill: url(#g4) } 
		.s4 { mix-blend-mode: screen;fill: url(#g5) } 
		.s5 { mix-blend-mode: screen;fill: url(#g6) } 
		.s6 { mix-blend-mode: screen;fill: url(#g7) } 
		.s7 { mix-blend-mode: screen;fill: url(#g8) } 
		.s8 { mix-blend-mode: screen;fill: url(#g9) } 
		.s9 { mix-blend-mode: screen;fill: url(#g10) } 
		.s10 { opacity: .2;mix-blend-mode: screen;fill: url(#g11) } 
		.s11 { opacity: .4;mix-blend-mode: screen;fill: url(#g12) } 
		.s12 { opacity: .4;mix-blend-mode: screen;fill: url(#g13) } 
		.s13 { opacity: .4;mix-blend-mode: screen;fill: url(#g14) } 
		.s14 { opacity: .5;mix-blend-mode: screen;fill: url(#g15) } 
		.s15 { mix-blend-mode: screen;fill: url(#g16) } 
		.s16 { mix-blend-mode: screen;fill: url(#g17) } 
		.s17 { mix-blend-mode: screen;fill: url(#g18) } 
		.s18 { mix-blend-mode: screen;fill: url(#g19) } 
		.s19 { mix-blend-mode: screen;fill: url(#g20) } 
		.s20 { mix-blend-mode: screen;fill: url(#g21) } 
		.s21 { opacity: .4;mix-blend-mode: screen;fill: url(#g22) } 
		.s22 { opacity: .5;mix-blend-mode: screen;fill: url(#g23) } 
		.s23 { mix-blend-mode: screen;fill: url(#g24) } 
		.s24 { mix-blend-mode: screen;fill: url(#g25) } 
		.s25 { opacity: .5;mix-blend-mode: screen;fill: url(#g26) } 
		.s26 { mix-blend-mode: screen;fill: url(#g27) } 
		.s27 { opacity: .4;mix-blend-mode: screen;fill: url(#g28) } 
		.s28 { opacity: .5;mix-blend-mode: screen;fill: url(#g29) } 
		.s29 { opacity: .5;mix-blend-mode: screen;fill: url(#g30) } 
		.s30 { opacity: .5;mix-blend-mode: screen;fill: url(#g31) } 
		.s31 { fill: url(#g32) } 
	</style>
	<g id="light_01">
		<g id="&lt;Clip Group&gt;">
			<g id="&lt;Group&gt;">
				<path id="&lt;Path&gt;" class="s0" d="m336.5 245.2c-0.5 1.3-2 1.8-3.2 1.2-1.2-0.5-1.8-2-1.2-3.2 0.5-1.2 2-1.8 3.2-1.2 1.2 0.6 1.8 2 1.2 3.2z"/>
				<path id="&lt;Path&gt;" class="s1" d="m326.7 188.4c-0.9 0.9-2.5 0.9-3.4-0.1-0.9-0.9-0.9-2.5 0.1-3.4 0.9-0.9 2.5-0.9 3.4 0.1 0.9 0.9 0.9 2.5-0.1 3.4z"/>
				<path id="&lt;Path&gt;" class="s2" d="m265.6 255.9c-0.9 0.9-2.5 0.8-3.4-0.1-0.9-1-0.9-2.5 0.1-3.5 0.9-0.9 2.5-0.9 3.4 0.1 0.9 1 0.9 2.5-0.1 3.5z"/>
				<path id="&lt;Path&gt;" class="s3" d="m299.9 204.4c-0.3 0.3-0.9 0.3-1.2-0.1-0.4-0.3-0.4-0.9 0-1.2 0.3-0.4 0.9-0.3 1.2 0 0.4 0.4 0.4 0.9 0 1.3z"/>
				<path id="&lt;Path&gt;" class="s4" d="m345.5 162.6c-0.4 0.4-1.1 0.4-1.6-0.1-0.4-0.4-0.4-1.1 0.1-1.5 0.4-0.5 1.1-0.5 1.6 0 0.4 0.4 0.4 1.1-0.1 1.6z"/>
				<path id="&lt;Path&gt;" class="s5" d="m319.4 186c-0.5 0.5-1.2 0.4-1.6 0-0.4-0.4-0.4-1.2 0-1.6 0.5-0.4 1.2-0.4 1.6 0 0.5 0.5 0.4 1.2 0 1.6z"/>
				<path id="&lt;Path&gt;" class="s6" d="m257.2 244.4c-0.5 0.4-1.2 0.4-1.6-0.1-0.5-0.4-0.4-1.1 0-1.6 0.5-0.4 1.2-0.4 1.6 0.1 0.4 0.4 0.4 1.1 0 1.6z"/>
				<path id="&lt;Path&gt;" class="s7" d="m326.1 256.4c-0.2 0.6-0.9 0.8-1.5 0.6-0.5-0.3-0.8-0.9-0.5-1.5 0.2-0.6 0.9-0.8 1.5-0.6 0.5 0.3 0.8 1 0.5 1.5z"/>
				<path id="&lt;Path&gt;" class="s8" d="m382.2 152c-0.5 0.4-1.2 0.4-1.6-0.1-0.4-0.4-0.4-1.1 0-1.6 0.5-0.4 1.2-0.4 1.6 0.1 0.5 0.4 0.4 1.1 0 1.6z"/>
				<path id="&lt;Path&gt;" class="s9" d="m315.4 255.6c-0.2 0.6-0.9 0.9-1.5 0.6-0.5-0.3-0.8-0.9-0.5-1.5 0.2-0.6 0.9-0.8 1.5-0.5 0.5 0.2 0.8 0.9 0.5 1.4z"/>
				<path id="&lt;Path&gt;" class="s10" d="m353.6 159.4c-3.3 3-8.3 2.9-11.4-0.3-3.1-3.2-3-8.3 0.2-11.4 3.2-3 8.3-2.9 11.4 0.3 3.1 3.2 3 8.3-0.2 11.4z"/>
				<path id="&lt;Path&gt;" class="s11" d="m282 272c-6.7 6.5-17.5 6.3-24-0.5-6.5-6.8-6.2-17.5 0.5-24 6.8-6.5 17.6-6.3 24.1 0.5 6.4 6.8 6.2 17.5-0.6 24z"/>
				<path id="&lt;Path&gt;" class="s12" d="m350.8 213.2c-3.9 8.5-13.9 12.3-22.5 8.5-8.5-3.9-12.3-14-8.4-22.5 3.8-8.6 13.9-12.4 22.4-8.5 8.6 3.9 12.4 13.9 8.5 22.5z"/>
				<path id="&lt;Path&gt;" class="s13" d="m285.8 197.1c-2.1 1.9-5.4 1.9-7.3-0.2-2-2.1-1.9-5.3 0.1-7.3 2.1-2 5.4-1.9 7.3 0.2 2 2 1.9 5.3-0.1 7.3z"/>
				<path id="&lt;Path&gt;" class="s14" d="m304.5 184.6c-1.1 1-2.8 1-3.9-0.1-1-1.1-1-2.8 0.1-3.9 1.1-1 2.8-1 3.8 0.1 1.1 1.1 1 2.8 0 3.9z"/>
				<path id="&lt;Path&gt;" class="s15" d="m313.8 317.2c-0.5 1.2-2 1.7-3.2 1.2-1.2-0.6-1.8-2-1.2-3.2 0.5-1.3 2-1.8 3.2-1.3 1.2 0.6 1.8 2 1.2 3.3z"/>
				<path id="&lt;Path&gt;" class="s16" d="m377.4 265.5c-0.6 1.2-2 1.8-3.2 1.2-1.3-0.5-1.8-2-1.2-3.2 0.5-1.2 2-1.8 3.2-1.2 1.2 0.5 1.7 2 1.2 3.2z"/>
				<path id="&lt;Path&gt;" class="s17" d="m211.9 312.1c-0.6 1.3-2 1.8-3.2 1.3-1.3-0.6-1.8-2-1.3-3.3 0.6-1.2 2-1.7 3.3-1.2 1.2 0.6 1.7 2 1.2 3.2z"/>
				<path id="&lt;Path&gt;" class="s18" d="m201 330.8c-0.9 1.9-3.2 2.8-5.2 1.9-2-0.9-2.9-3.2-2-5.2 0.9-1.9 3.2-2.8 5.2-1.9 2 0.9 2.9 3.2 2 5.2z"/>
				<path id="&lt;Path&gt;" class="s19" d="m294.9 342c-0.2 0.4-0.7 0.6-1.2 0.4-0.4-0.2-0.6-0.7-0.4-1.2 0.2-0.4 0.7-0.6 1.1-0.4 0.5 0.2 0.7 0.7 0.5 1.2z"/>
				<path id="&lt;Path&gt;" class="s20" d="m306.1 317.7c-0.2 0.6-0.9 0.8-1.5 0.6-0.5-0.3-0.8-1-0.5-1.5 0.2-0.6 0.9-0.8 1.5-0.6 0.5 0.3 0.8 0.9 0.5 1.5z"/>
				<path id="&lt;Path&gt;" class="s21" d="m279.1 340.5c-1.2 2.6-4.3 3.7-6.9 2.5-2.6-1.1-3.7-4.2-2.6-6.8 1.2-2.6 4.3-3.7 6.9-2.6 2.6 1.2 3.7 4.3 2.6 6.9z"/>
				<path id="&lt;Path&gt;" class="s22" d="m291.7 321.9c-0.6 1.4-2.2 2-3.6 1.4-1.3-0.7-1.9-2.3-1.3-3.6 0.6-1.4 2.2-2 3.6-1.4 1.3 0.6 1.9 2.2 1.3 3.6z"/>
				<path id="&lt;Path&gt;" class="s23" d="m729.8 220.4c-2.9 6.6-10.7 9.5-17.2 6.5-6.6-3-9.5-10.7-6.5-17.3 2.9-6.5 10.7-9.5 17.2-6.5 6.6 3 9.5 10.7 6.5 17.3z"/>
				<path id="&lt;Path&gt;" class="s24" d="m634.3 316.3c-1.1 2.3-3.9 3.4-6.2 2.3-2.4-1.1-3.5-3.9-2.4-6.2 1.1-2.4 3.9-3.4 6.2-2.4 2.4 1.1 3.5 3.9 2.4 6.3z"/>
				<path id="&lt;Path&gt;" class="s25" d="m695.1 297.1c-5.4 12-19.5 17.3-31.4 11.9-12-5.5-17.3-19.5-11.9-31.5 5.5-11.9 19.5-17.2 31.5-11.8 11.9 5.4 17.2 19.5 11.8 31.4z"/>
				<path id="&lt;Path&gt;" class="s26" d="m694.6 186.2c-1.4 3-4.9 4.3-8 3-3-1.4-4.3-5-3-8 1.4-3 5-4.4 8-3 3 1.4 4.4 4.9 3 8z"/>
				<path id="&lt;Path&gt;" class="s27" d="m549.4 308.2c-6.3 14-22.7 20.1-36.6 13.8-13.9-6.3-20.1-22.7-13.8-36.6 6.3-13.9 22.7-20.1 36.6-13.8 14 6.3 20.1 22.7 13.8 36.6z"/>
				<path id="&lt;Path&gt;" class="s28" d="m617.4 208.7c-3.4 7.3-12 10.6-19.3 7.3-7.3-3.3-10.6-12-7.3-19.3 3.4-7.3 12-10.5 19.3-7.2 7.3 3.3 10.6 11.9 7.3 19.2z"/>
				<path id="&lt;Path&gt;" class="s29" d="m317.2 270.6c-0.6 1.4-2.2 2-3.6 1.4-1.3-0.6-1.9-2.2-1.3-3.6 0.6-1.4 2.2-2 3.6-1.4 1.3 0.7 1.9 2.3 1.3 3.6z"/>
				<path id="&lt;Path&gt;" class="s30" d="m227.3 260.4c-1 1-2.8 1-3.8-0.1-1-1.1-1-2.8 0.1-3.8 1.1-1 2.8-1 3.8 0.1 1.1 1.1 1 2.8-0.1 3.8z"/>
			</g>
		</g>
		<g id="sky_01">
			<g id="&lt;Clip Group&gt;">
				<path id="&lt;Path&gt;" class="s31" d="m0.5 0h800v400h-800z"/>
			</g>
		</g>
	</g>
</svg>